<mxfile host="app.diagrams.net" modified="2024-05-03T01:19:55.572Z" agent="Mozilla/5.0 (Windows NT 10.0; Win64; x64; rv:125.0) Gecko/20100101 Firefox/125.0" etag="7_6veFfvm-r9MYdp-0gO" version="24.3.1" type="github">
  <diagram name="Page-1" id="MQ3P1fkGegDZ9fY9XGFn">
    <mxGraphModel dx="794" dy="1486" grid="1" gridSize="10" guides="1" tooltips="1" connect="1" arrows="1" fold="1" page="1" pageScale="1" pageWidth="850" pageHeight="1100" math="0" shadow="0">
      <root>
        <mxCell id="0" />
        <mxCell id="1" parent="0" />
        <mxCell id="2WAmzF2tmCw0uLwGECOJ-3" style="edgeStyle=orthogonalEdgeStyle;rounded=0;orthogonalLoop=1;jettySize=auto;html=1;" parent="1" source="2WAmzF2tmCw0uLwGECOJ-1" target="2WAmzF2tmCw0uLwGECOJ-2" edge="1">
          <mxGeometry relative="1" as="geometry" />
        </mxCell>
        <mxCell id="2WAmzF2tmCw0uLwGECOJ-1" value="médicos" style="rounded=1;whiteSpace=wrap;html=1;arcSize=50;" parent="1" vertex="1">
          <mxGeometry x="110" y="95" width="120" height="60" as="geometry" />
        </mxCell>
        <mxCell id="2WAmzF2tmCw0uLwGECOJ-9" style="edgeStyle=orthogonalEdgeStyle;rounded=0;orthogonalLoop=1;jettySize=auto;html=1;entryX=0;entryY=0.5;entryDx=0;entryDy=0;" parent="1" source="2WAmzF2tmCw0uLwGECOJ-2" target="2WAmzF2tmCw0uLwGECOJ-8" edge="1">
          <mxGeometry relative="1" as="geometry" />
        </mxCell>
        <mxCell id="2WAmzF2tmCw0uLwGECOJ-2" value="realiza" style="rhombus;whiteSpace=wrap;html=1;" parent="1" vertex="1">
          <mxGeometry x="310" y="85" width="80" height="80" as="geometry" />
        </mxCell>
        <mxCell id="2WAmzF2tmCw0uLwGECOJ-7" value="&lt;div&gt;1&lt;/div&gt;" style="text;html=1;align=center;verticalAlign=middle;resizable=0;points=[];autosize=1;strokeColor=none;fillColor=none;" parent="1" vertex="1">
          <mxGeometry x="280" y="110" width="30" height="30" as="geometry" />
        </mxCell>
        <mxCell id="2WAmzF2tmCw0uLwGECOJ-12" style="edgeStyle=orthogonalEdgeStyle;rounded=0;orthogonalLoop=1;jettySize=auto;html=1;entryX=0.5;entryY=0;entryDx=0;entryDy=0;" parent="1" source="2WAmzF2tmCw0uLwGECOJ-8" target="2WAmzF2tmCw0uLwGECOJ-11" edge="1">
          <mxGeometry relative="1" as="geometry" />
        </mxCell>
        <mxCell id="2WAmzF2tmCw0uLwGECOJ-8" value="cadastro" style="rounded=1;whiteSpace=wrap;html=1;arcSize=50;" parent="1" vertex="1">
          <mxGeometry x="460" y="95" width="120" height="60" as="geometry" />
        </mxCell>
        <mxCell id="2WAmzF2tmCw0uLwGECOJ-10" value="N" style="text;html=1;align=center;verticalAlign=middle;resizable=0;points=[];autosize=1;strokeColor=none;fillColor=none;" parent="1" vertex="1">
          <mxGeometry x="390" y="110" width="30" height="30" as="geometry" />
        </mxCell>
        <mxCell id="2WAmzF2tmCw0uLwGECOJ-14" style="edgeStyle=orthogonalEdgeStyle;rounded=0;orthogonalLoop=1;jettySize=auto;html=1;" parent="1" source="2WAmzF2tmCw0uLwGECOJ-11" target="2WAmzF2tmCw0uLwGECOJ-13" edge="1">
          <mxGeometry relative="1" as="geometry" />
        </mxCell>
        <mxCell id="2WAmzF2tmCw0uLwGECOJ-11" value="realiza" style="rhombus;whiteSpace=wrap;html=1;" parent="1" vertex="1">
          <mxGeometry x="600" y="185" width="80" height="80" as="geometry" />
        </mxCell>
        <mxCell id="2WAmzF2tmCw0uLwGECOJ-13" value="armazenamento" style="shape=cylinder3;whiteSpace=wrap;html=1;boundedLbl=1;backgroundOutline=1;size=15;" parent="1" vertex="1">
          <mxGeometry x="730" y="185" width="60" height="80" as="geometry" />
        </mxCell>
        <mxCell id="2WAmzF2tmCw0uLwGECOJ-17" value="cpf" style="ellipse;whiteSpace=wrap;html=1;fillColor=#dae8fc;strokeColor=#6c8ebf;" parent="1" vertex="1">
          <mxGeometry x="485" y="-110" width="60" height="40" as="geometry" />
        </mxCell>
        <mxCell id="2WAmzF2tmCw0uLwGECOJ-19" value="endereço" style="ellipse;whiteSpace=wrap;html=1;fillColor=#dae8fc;strokeColor=#6c8ebf;" parent="1" vertex="1">
          <mxGeometry x="605" y="-110" width="60" height="40" as="geometry" />
        </mxCell>
        <mxCell id="2WAmzF2tmCw0uLwGECOJ-23" value="especialidade" style="ellipse;whiteSpace=wrap;html=1;fillColor=#dae8fc;strokeColor=#6c8ebf;" parent="1" vertex="1">
          <mxGeometry x="660" width="80" height="40" as="geometry" />
        </mxCell>
        <mxCell id="2WAmzF2tmCw0uLwGECOJ-24" value="nome" style="ellipse;whiteSpace=wrap;html=1;fillColor=#dae8fc;strokeColor=#6c8ebf;" parent="1" vertex="1">
          <mxGeometry x="380" y="-50" width="60" height="40" as="geometry" />
        </mxCell>
        <mxCell id="2WAmzF2tmCw0uLwGECOJ-27" style="edgeStyle=orthogonalEdgeStyle;rounded=0;orthogonalLoop=1;jettySize=auto;html=1;entryX=0;entryY=0.5;entryDx=0;entryDy=0;" parent="1" source="2WAmzF2tmCw0uLwGECOJ-25" target="2WAmzF2tmCw0uLwGECOJ-26" edge="1">
          <mxGeometry relative="1" as="geometry" />
        </mxCell>
        <mxCell id="2WAmzF2tmCw0uLwGECOJ-25" value="cliente" style="rounded=1;whiteSpace=wrap;html=1;arcSize=50;" parent="1" vertex="1">
          <mxGeometry x="110" y="340" width="120" height="60" as="geometry" />
        </mxCell>
        <mxCell id="2WAmzF2tmCw0uLwGECOJ-29" style="edgeStyle=orthogonalEdgeStyle;rounded=0;orthogonalLoop=1;jettySize=auto;html=1;entryX=0;entryY=0.5;entryDx=0;entryDy=0;" parent="1" source="2WAmzF2tmCw0uLwGECOJ-26" target="2WAmzF2tmCw0uLwGECOJ-28" edge="1">
          <mxGeometry relative="1" as="geometry" />
        </mxCell>
        <mxCell id="2WAmzF2tmCw0uLwGECOJ-26" value="realiza" style="rhombus;whiteSpace=wrap;html=1;" parent="1" vertex="1">
          <mxGeometry x="310" y="330" width="80" height="80" as="geometry" />
        </mxCell>
        <mxCell id="2WAmzF2tmCw0uLwGECOJ-31" style="edgeStyle=orthogonalEdgeStyle;rounded=0;orthogonalLoop=1;jettySize=auto;html=1;entryX=0.5;entryY=0;entryDx=0;entryDy=0;" parent="1" source="2WAmzF2tmCw0uLwGECOJ-28" target="2WAmzF2tmCw0uLwGECOJ-30" edge="1">
          <mxGeometry relative="1" as="geometry" />
        </mxCell>
        <mxCell id="NtfHxoDCMZl6DEECY9gm-162" style="edgeStyle=orthogonalEdgeStyle;rounded=0;orthogonalLoop=1;jettySize=auto;html=1;entryX=0.5;entryY=1;entryDx=0;entryDy=0;entryPerimeter=0;" edge="1" parent="1" source="2WAmzF2tmCw0uLwGECOJ-28" target="NtfHxoDCMZl6DEECY9gm-153">
          <mxGeometry relative="1" as="geometry">
            <mxPoint x="459.9999999999998" y="300" as="targetPoint" />
            <Array as="points">
              <mxPoint x="425" y="350" />
            </Array>
          </mxGeometry>
        </mxCell>
        <mxCell id="2WAmzF2tmCw0uLwGECOJ-28" value="cadastro" style="rounded=1;whiteSpace=wrap;html=1;arcSize=50;" parent="1" vertex="1">
          <mxGeometry x="460" y="340" width="120" height="60" as="geometry" />
        </mxCell>
        <mxCell id="NtfHxoDCMZl6DEECY9gm-19" style="edgeStyle=orthogonalEdgeStyle;rounded=0;orthogonalLoop=1;jettySize=auto;html=1;" edge="1" parent="1" source="2WAmzF2tmCw0uLwGECOJ-30" target="2WAmzF2tmCw0uLwGECOJ-41">
          <mxGeometry relative="1" as="geometry" />
        </mxCell>
        <mxCell id="2WAmzF2tmCw0uLwGECOJ-30" value="realiza" style="rhombus;whiteSpace=wrap;html=1;" parent="1" vertex="1">
          <mxGeometry x="480" y="500" width="80" height="80" as="geometry" />
        </mxCell>
        <mxCell id="NtfHxoDCMZl6DEECY9gm-20" style="edgeStyle=orthogonalEdgeStyle;rounded=0;orthogonalLoop=1;jettySize=auto;html=1;entryX=1;entryY=0.5;entryDx=0;entryDy=0;" edge="1" parent="1" source="2WAmzF2tmCw0uLwGECOJ-32" target="2WAmzF2tmCw0uLwGECOJ-44">
          <mxGeometry relative="1" as="geometry" />
        </mxCell>
        <mxCell id="2WAmzF2tmCw0uLwGECOJ-32" value="&lt;div&gt;consulta&lt;/div&gt;&lt;div&gt;(especialidade)&lt;br&gt;&lt;/div&gt;" style="rounded=1;whiteSpace=wrap;html=1;arcSize=50;" parent="1" vertex="1">
          <mxGeometry x="700" y="440" width="120" height="60" as="geometry" />
        </mxCell>
        <mxCell id="2WAmzF2tmCw0uLwGECOJ-35" style="edgeStyle=orthogonalEdgeStyle;rounded=0;orthogonalLoop=1;jettySize=auto;html=1;entryX=0.5;entryY=1;entryDx=0;entryDy=0;entryPerimeter=0;" parent="1" source="2WAmzF2tmCw0uLwGECOJ-32" target="2WAmzF2tmCw0uLwGECOJ-13" edge="1">
          <mxGeometry relative="1" as="geometry" />
        </mxCell>
        <mxCell id="2WAmzF2tmCw0uLwGECOJ-43" style="edgeStyle=orthogonalEdgeStyle;rounded=0;orthogonalLoop=1;jettySize=auto;html=1;entryX=0.5;entryY=1;entryDx=0;entryDy=0;" parent="1" source="2WAmzF2tmCw0uLwGECOJ-39" target="2WAmzF2tmCw0uLwGECOJ-32" edge="1">
          <mxGeometry relative="1" as="geometry" />
        </mxCell>
        <mxCell id="2WAmzF2tmCw0uLwGECOJ-39" value="realiza" style="rhombus;whiteSpace=wrap;html=1;" parent="1" vertex="1">
          <mxGeometry x="720" y="645" width="80" height="80" as="geometry" />
        </mxCell>
        <mxCell id="2WAmzF2tmCw0uLwGECOJ-42" style="edgeStyle=orthogonalEdgeStyle;rounded=0;orthogonalLoop=1;jettySize=auto;html=1;entryX=0;entryY=0.5;entryDx=0;entryDy=0;" parent="1" source="2WAmzF2tmCw0uLwGECOJ-41" target="2WAmzF2tmCw0uLwGECOJ-39" edge="1">
          <mxGeometry relative="1" as="geometry" />
        </mxCell>
        <mxCell id="2WAmzF2tmCw0uLwGECOJ-41" value="análise do convênio" style="rounded=1;whiteSpace=wrap;html=1;arcSize=50;" parent="1" vertex="1">
          <mxGeometry x="460" y="655" width="120" height="60" as="geometry" />
        </mxCell>
        <mxCell id="2WAmzF2tmCw0uLwGECOJ-51" style="edgeStyle=orthogonalEdgeStyle;rounded=0;orthogonalLoop=1;jettySize=auto;html=1;" parent="1" source="2WAmzF2tmCw0uLwGECOJ-44" edge="1">
          <mxGeometry relative="1" as="geometry">
            <mxPoint x="220" y="470" as="targetPoint" />
          </mxGeometry>
        </mxCell>
        <mxCell id="2WAmzF2tmCw0uLwGECOJ-44" value="realiza" style="rhombus;whiteSpace=wrap;html=1;" parent="1" vertex="1">
          <mxGeometry x="280" y="430" width="80" height="80" as="geometry" />
        </mxCell>
        <mxCell id="2WAmzF2tmCw0uLwGECOJ-47" value="convênio" style="ellipse;whiteSpace=wrap;html=1;fillColor=#e1d5e7;strokeColor=#9673a6;" parent="1" vertex="1">
          <mxGeometry x="940" y="330" width="70" height="50" as="geometry" />
        </mxCell>
        <mxCell id="2WAmzF2tmCw0uLwGECOJ-48" value="nome" style="ellipse;whiteSpace=wrap;html=1;fillColor=#e1d5e7;strokeColor=#9673a6;" parent="1" vertex="1">
          <mxGeometry x="820" y="340" width="70" height="50" as="geometry" />
        </mxCell>
        <mxCell id="2WAmzF2tmCw0uLwGECOJ-49" value="cnpj" style="ellipse;whiteSpace=wrap;html=1;fillColor=#e1d5e7;strokeColor=#9673a6;" parent="1" vertex="1">
          <mxGeometry x="970" y="410" width="70" height="50" as="geometry" />
        </mxCell>
        <mxCell id="2WAmzF2tmCw0uLwGECOJ-52" value="nascimento" style="ellipse;whiteSpace=wrap;html=1;fillColor=#ffe6cc;strokeColor=#d79b00;" parent="1" vertex="1">
          <mxGeometry x="500" y="270" width="70" height="30" as="geometry" />
        </mxCell>
        <mxCell id="2WAmzF2tmCw0uLwGECOJ-55" value="telefone" style="ellipse;whiteSpace=wrap;html=1;fillColor=#ffe6cc;strokeColor=#d79b00;" parent="1" vertex="1">
          <mxGeometry x="240" y="210" width="70" height="30" as="geometry" />
        </mxCell>
        <mxCell id="2WAmzF2tmCw0uLwGECOJ-56" value="email" style="ellipse;whiteSpace=wrap;html=1;fillColor=#ffe6cc;strokeColor=#d79b00;" parent="1" vertex="1">
          <mxGeometry x="435" y="170" width="70" height="30" as="geometry" />
        </mxCell>
        <mxCell id="2WAmzF2tmCw0uLwGECOJ-60" style="edgeStyle=none;rounded=0;orthogonalLoop=1;jettySize=auto;html=1;exitX=0.5;exitY=0;exitDx=0;exitDy=0;" parent="1" source="2WAmzF2tmCw0uLwGECOJ-28" target="2WAmzF2tmCw0uLwGECOJ-28" edge="1">
          <mxGeometry relative="1" as="geometry" />
        </mxCell>
        <mxCell id="NtfHxoDCMZl6DEECY9gm-2" style="edgeStyle=orthogonalEdgeStyle;rounded=0;orthogonalLoop=1;jettySize=auto;html=1;" edge="1" parent="1" source="2WAmzF2tmCw0uLwGECOJ-68" target="NtfHxoDCMZl6DEECY9gm-1">
          <mxGeometry relative="1" as="geometry" />
        </mxCell>
        <mxCell id="2WAmzF2tmCw0uLwGECOJ-68" value="&lt;div&gt;consulta/receita médica&lt;/div&gt;" style="rounded=1;whiteSpace=wrap;html=1;arcSize=50;" parent="1" vertex="1">
          <mxGeometry x="100" y="750" width="120" height="60" as="geometry" />
        </mxCell>
        <mxCell id="2WAmzF2tmCw0uLwGECOJ-72" style="edgeStyle=none;rounded=0;orthogonalLoop=1;jettySize=auto;html=1;entryX=0.5;entryY=0;entryDx=0;entryDy=0;" parent="1" source="2WAmzF2tmCw0uLwGECOJ-70" target="2WAmzF2tmCw0uLwGECOJ-71" edge="1">
          <mxGeometry relative="1" as="geometry" />
        </mxCell>
        <mxCell id="2WAmzF2tmCw0uLwGECOJ-70" value="&lt;div&gt;consulta&lt;/div&gt;&lt;div&gt;(planilha)&lt;br&gt;&lt;/div&gt;" style="rounded=1;whiteSpace=wrap;html=1;arcSize=50;" parent="1" vertex="1">
          <mxGeometry x="100" y="440" width="120" height="60" as="geometry" />
        </mxCell>
        <mxCell id="2WAmzF2tmCw0uLwGECOJ-73" style="edgeStyle=none;rounded=0;orthogonalLoop=1;jettySize=auto;html=1;entryX=0.5;entryY=0;entryDx=0;entryDy=0;" parent="1" source="2WAmzF2tmCw0uLwGECOJ-71" target="2WAmzF2tmCw0uLwGECOJ-68" edge="1">
          <mxGeometry relative="1" as="geometry" />
        </mxCell>
        <mxCell id="2WAmzF2tmCw0uLwGECOJ-71" value="realiza" style="rhombus;whiteSpace=wrap;html=1;" parent="1" vertex="1">
          <mxGeometry x="120" y="550" width="80" height="80" as="geometry" />
        </mxCell>
        <mxCell id="NtfHxoDCMZl6DEECY9gm-4" style="edgeStyle=orthogonalEdgeStyle;rounded=0;orthogonalLoop=1;jettySize=auto;html=1;entryX=0;entryY=0.5;entryDx=0;entryDy=0;" edge="1" parent="1" source="NtfHxoDCMZl6DEECY9gm-1" target="NtfHxoDCMZl6DEECY9gm-3">
          <mxGeometry relative="1" as="geometry" />
        </mxCell>
        <mxCell id="NtfHxoDCMZl6DEECY9gm-6" style="edgeStyle=orthogonalEdgeStyle;rounded=0;orthogonalLoop=1;jettySize=auto;html=1;" edge="1" parent="1" source="NtfHxoDCMZl6DEECY9gm-1" target="NtfHxoDCMZl6DEECY9gm-5">
          <mxGeometry relative="1" as="geometry" />
        </mxCell>
        <mxCell id="NtfHxoDCMZl6DEECY9gm-1" value="realiza" style="rhombus;whiteSpace=wrap;html=1;" vertex="1" parent="1">
          <mxGeometry x="270" y="740" width="80" height="80" as="geometry" />
        </mxCell>
        <mxCell id="NtfHxoDCMZl6DEECY9gm-3" value="Alta" style="rounded=1;whiteSpace=wrap;html=1;arcSize=50;fillColor=#d5e8d4;strokeColor=#82b366;" vertex="1" parent="1">
          <mxGeometry x="400" y="750" width="120" height="60" as="geometry" />
        </mxCell>
        <mxCell id="NtfHxoDCMZl6DEECY9gm-34" style="edgeStyle=orthogonalEdgeStyle;rounded=0;orthogonalLoop=1;jettySize=auto;html=1;entryX=0.5;entryY=0;entryDx=0;entryDy=0;" edge="1" parent="1" source="NtfHxoDCMZl6DEECY9gm-5" target="NtfHxoDCMZl6DEECY9gm-33">
          <mxGeometry relative="1" as="geometry" />
        </mxCell>
        <mxCell id="NtfHxoDCMZl6DEECY9gm-5" value="Diagnóstico preciso" style="rounded=1;whiteSpace=wrap;html=1;arcSize=50;" vertex="1" parent="1">
          <mxGeometry x="250" y="880" width="120" height="60" as="geometry" />
        </mxCell>
        <mxCell id="NtfHxoDCMZl6DEECY9gm-7" value="Text" style="text;html=1;align=center;verticalAlign=middle;whiteSpace=wrap;rounded=0;" vertex="1" parent="1">
          <mxGeometry x="220" y="600" width="60" height="30" as="geometry" />
        </mxCell>
        <mxCell id="NtfHxoDCMZl6DEECY9gm-9" value="Text" style="text;html=1;align=center;verticalAlign=middle;whiteSpace=wrap;rounded=0;" vertex="1" parent="1">
          <mxGeometry x="230" y="610" width="60" height="30" as="geometry" />
        </mxCell>
        <mxCell id="NtfHxoDCMZl6DEECY9gm-10" value="Text" style="text;html=1;align=center;verticalAlign=middle;whiteSpace=wrap;rounded=0;" vertex="1" parent="1">
          <mxGeometry x="240" y="620" width="60" height="30" as="geometry" />
        </mxCell>
        <mxCell id="NtfHxoDCMZl6DEECY9gm-11" value="Text" style="text;html=1;align=center;verticalAlign=middle;whiteSpace=wrap;rounded=0;" vertex="1" parent="1">
          <mxGeometry x="250" y="630" width="60" height="30" as="geometry" />
        </mxCell>
        <mxCell id="NtfHxoDCMZl6DEECY9gm-12" value="N" style="text;html=1;align=center;verticalAlign=middle;whiteSpace=wrap;rounded=0;" vertex="1" parent="1">
          <mxGeometry x="660" y="840" width="60" height="30" as="geometry" />
        </mxCell>
        <mxCell id="NtfHxoDCMZl6DEECY9gm-13" value="N" style="text;html=1;align=center;verticalAlign=middle;whiteSpace=wrap;rounded=0;" vertex="1" parent="1">
          <mxGeometry x="265" y="850" width="60" height="30" as="geometry" />
        </mxCell>
        <mxCell id="NtfHxoDCMZl6DEECY9gm-14" value="N" style="text;html=1;align=center;verticalAlign=middle;whiteSpace=wrap;rounded=0;" vertex="1" parent="1">
          <mxGeometry x="200" y="440" width="60" height="30" as="geometry" />
        </mxCell>
        <mxCell id="NtfHxoDCMZl6DEECY9gm-15" value="N" style="text;html=1;align=center;verticalAlign=middle;whiteSpace=wrap;rounded=0;" vertex="1" parent="1">
          <mxGeometry x="760" y="500" width="60" height="30" as="geometry" />
        </mxCell>
        <mxCell id="NtfHxoDCMZl6DEECY9gm-16" value="N" style="text;html=1;align=center;verticalAlign=middle;whiteSpace=wrap;rounded=0;" vertex="1" parent="1">
          <mxGeometry x="390" y="340" width="60" height="30" as="geometry" />
        </mxCell>
        <mxCell id="NtfHxoDCMZl6DEECY9gm-17" value="1" style="text;html=1;align=center;verticalAlign=middle;whiteSpace=wrap;rounded=0;" vertex="1" parent="1">
          <mxGeometry x="240" y="340" width="60" height="30" as="geometry" />
        </mxCell>
        <mxCell id="NtfHxoDCMZl6DEECY9gm-18" value="1" style="text;html=1;align=center;verticalAlign=middle;whiteSpace=wrap;rounded=0;" vertex="1" parent="1">
          <mxGeometry x="620" y="200" width="60" height="30" as="geometry" />
        </mxCell>
        <mxCell id="NtfHxoDCMZl6DEECY9gm-21" value="1" style="text;html=1;align=center;verticalAlign=middle;whiteSpace=wrap;rounded=0;" vertex="1" parent="1">
          <mxGeometry x="720" y="280" width="60" height="30" as="geometry" />
        </mxCell>
        <mxCell id="NtfHxoDCMZl6DEECY9gm-22" value="1" style="text;html=1;align=center;verticalAlign=middle;whiteSpace=wrap;rounded=0;" vertex="1" parent="1">
          <mxGeometry x="505" y="400" width="60" height="30" as="geometry" />
        </mxCell>
        <mxCell id="NtfHxoDCMZl6DEECY9gm-24" value="1" style="text;html=1;align=center;verticalAlign=middle;whiteSpace=wrap;rounded=0;" vertex="1" parent="1">
          <mxGeometry x="505" y="625" width="60" height="30" as="geometry" />
        </mxCell>
        <mxCell id="NtfHxoDCMZl6DEECY9gm-25" value="1" style="text;html=1;align=center;verticalAlign=middle;whiteSpace=wrap;rounded=0;" vertex="1" parent="1">
          <mxGeometry x="350" y="440" width="60" height="30" as="geometry" />
        </mxCell>
        <mxCell id="NtfHxoDCMZl6DEECY9gm-27" value="1" style="text;html=1;align=center;verticalAlign=middle;whiteSpace=wrap;rounded=0;" vertex="1" parent="1">
          <mxGeometry x="150" y="720" width="60" height="30" as="geometry" />
        </mxCell>
        <mxCell id="NtfHxoDCMZl6DEECY9gm-31" value="1" style="text;html=1;align=center;verticalAlign=middle;whiteSpace=wrap;rounded=0;" vertex="1" parent="1">
          <mxGeometry x="330" y="740" width="60" height="30" as="geometry" />
        </mxCell>
        <mxCell id="NtfHxoDCMZl6DEECY9gm-36" style="edgeStyle=orthogonalEdgeStyle;rounded=0;orthogonalLoop=1;jettySize=auto;html=1;entryX=0;entryY=0.5;entryDx=0;entryDy=0;" edge="1" parent="1" source="NtfHxoDCMZl6DEECY9gm-33" target="NtfHxoDCMZl6DEECY9gm-35">
          <mxGeometry relative="1" as="geometry" />
        </mxCell>
        <mxCell id="NtfHxoDCMZl6DEECY9gm-33" value="Realiza" style="rhombus;whiteSpace=wrap;html=1;" vertex="1" parent="1">
          <mxGeometry x="270" y="1000" width="80" height="80" as="geometry" />
        </mxCell>
        <mxCell id="NtfHxoDCMZl6DEECY9gm-40" style="edgeStyle=orthogonalEdgeStyle;rounded=0;orthogonalLoop=1;jettySize=auto;html=1;entryX=0.5;entryY=1;entryDx=0;entryDy=0;" edge="1" parent="1" source="NtfHxoDCMZl6DEECY9gm-35" target="NtfHxoDCMZl6DEECY9gm-39">
          <mxGeometry relative="1" as="geometry" />
        </mxCell>
        <mxCell id="NtfHxoDCMZl6DEECY9gm-176" style="edgeStyle=orthogonalEdgeStyle;rounded=0;orthogonalLoop=1;jettySize=auto;html=1;" edge="1" parent="1" source="NtfHxoDCMZl6DEECY9gm-35" target="NtfHxoDCMZl6DEECY9gm-174">
          <mxGeometry relative="1" as="geometry" />
        </mxCell>
        <mxCell id="NtfHxoDCMZl6DEECY9gm-35" value="Confirmação do diagnóstico (INTERNAÇÃO)" style="rounded=1;whiteSpace=wrap;html=1;arcSize=50;" vertex="1" parent="1">
          <mxGeometry x="430" y="1010" width="120" height="60" as="geometry" />
        </mxCell>
        <mxCell id="NtfHxoDCMZl6DEECY9gm-37" value="1" style="text;html=1;align=center;verticalAlign=middle;whiteSpace=wrap;rounded=0;" vertex="1" parent="1">
          <mxGeometry x="380" y="1010" width="60" height="30" as="geometry" />
        </mxCell>
        <mxCell id="NtfHxoDCMZl6DEECY9gm-43" style="edgeStyle=orthogonalEdgeStyle;rounded=0;orthogonalLoop=1;jettySize=auto;html=1;" edge="1" parent="1" source="NtfHxoDCMZl6DEECY9gm-38" target="NtfHxoDCMZl6DEECY9gm-42">
          <mxGeometry relative="1" as="geometry" />
        </mxCell>
        <mxCell id="NtfHxoDCMZl6DEECY9gm-38" value="ALA Internação" style="rounded=1;whiteSpace=wrap;html=1;fillColor=#dae8fc;strokeColor=#6c8ebf;arcSize=50;" vertex="1" parent="1">
          <mxGeometry x="710" y="870" width="120" height="60" as="geometry" />
        </mxCell>
        <mxCell id="NtfHxoDCMZl6DEECY9gm-41" style="edgeStyle=orthogonalEdgeStyle;rounded=0;orthogonalLoop=1;jettySize=auto;html=1;entryX=0.5;entryY=1;entryDx=0;entryDy=0;" edge="1" parent="1" source="NtfHxoDCMZl6DEECY9gm-39" target="NtfHxoDCMZl6DEECY9gm-38">
          <mxGeometry relative="1" as="geometry" />
        </mxCell>
        <mxCell id="NtfHxoDCMZl6DEECY9gm-39" value="Ocupa" style="rhombus;whiteSpace=wrap;html=1;" vertex="1" parent="1">
          <mxGeometry x="580" y="920" width="80" height="80" as="geometry" />
        </mxCell>
        <mxCell id="NtfHxoDCMZl6DEECY9gm-45" style="edgeStyle=orthogonalEdgeStyle;rounded=0;orthogonalLoop=1;jettySize=auto;html=1;" edge="1" parent="1" source="NtfHxoDCMZl6DEECY9gm-42" target="NtfHxoDCMZl6DEECY9gm-44">
          <mxGeometry relative="1" as="geometry" />
        </mxCell>
        <mxCell id="NtfHxoDCMZl6DEECY9gm-42" value="Possui" style="rhombus;whiteSpace=wrap;html=1;" vertex="1" parent="1">
          <mxGeometry x="730" y="760" width="80" height="80" as="geometry" />
        </mxCell>
        <mxCell id="NtfHxoDCMZl6DEECY9gm-58" style="edgeStyle=orthogonalEdgeStyle;rounded=0;orthogonalLoop=1;jettySize=auto;html=1;entryX=0.5;entryY=0;entryDx=0;entryDy=0;" edge="1" parent="1" source="NtfHxoDCMZl6DEECY9gm-44" target="NtfHxoDCMZl6DEECY9gm-56">
          <mxGeometry relative="1" as="geometry" />
        </mxCell>
        <mxCell id="NtfHxoDCMZl6DEECY9gm-44" value="Tipo de quarto" style="rounded=1;whiteSpace=wrap;html=1;fillColor=#dae8fc;strokeColor=#6c8ebf;arcSize=50;" vertex="1" parent="1">
          <mxGeometry x="850" y="770" width="120" height="60" as="geometry" />
        </mxCell>
        <mxCell id="NtfHxoDCMZl6DEECY9gm-46" value="Apartamentos" style="ellipse;whiteSpace=wrap;html=1;fillColor=#fff2cc;strokeColor=#d6b656;" vertex="1" parent="1">
          <mxGeometry x="1110" y="685" width="90" height="35" as="geometry" />
        </mxCell>
        <mxCell id="NtfHxoDCMZl6DEECY9gm-143" style="edgeStyle=orthogonalEdgeStyle;rounded=0;orthogonalLoop=1;jettySize=auto;html=1;entryX=0;entryY=0;entryDx=0;entryDy=0;" edge="1" parent="1" source="NtfHxoDCMZl6DEECY9gm-47" target="NtfHxoDCMZl6DEECY9gm-48">
          <mxGeometry relative="1" as="geometry" />
        </mxCell>
        <mxCell id="NtfHxoDCMZl6DEECY9gm-47" value="Número da Hospedagem" style="ellipse;whiteSpace=wrap;html=1;fillColor=#fff2cc;strokeColor=#d6b656;" vertex="1" parent="1">
          <mxGeometry x="920" y="550" width="110" height="45" as="geometry" />
        </mxCell>
        <mxCell id="NtfHxoDCMZl6DEECY9gm-48" value="Enfermaria" style="ellipse;whiteSpace=wrap;html=1;fillColor=#f5f5f5;strokeColor=#666666;fontColor=#333333;" vertex="1" parent="1">
          <mxGeometry x="970" y="670" width="80" height="60" as="geometry" />
        </mxCell>
        <mxCell id="NtfHxoDCMZl6DEECY9gm-137" style="edgeStyle=orthogonalEdgeStyle;rounded=0;orthogonalLoop=1;jettySize=auto;html=1;entryX=0.5;entryY=0;entryDx=0;entryDy=0;" edge="1" parent="1" source="NtfHxoDCMZl6DEECY9gm-49" target="NtfHxoDCMZl6DEECY9gm-48">
          <mxGeometry relative="1" as="geometry" />
        </mxCell>
        <mxCell id="NtfHxoDCMZl6DEECY9gm-49" value="Quartos duplos" style="ellipse;whiteSpace=wrap;html=1;fillColor=#fff2cc;strokeColor=#d6b656;" vertex="1" parent="1">
          <mxGeometry x="1070" y="620" width="70" height="30" as="geometry" />
        </mxCell>
        <mxCell id="NtfHxoDCMZl6DEECY9gm-70" style="edgeStyle=orthogonalEdgeStyle;rounded=0;orthogonalLoop=1;jettySize=auto;html=1;entryX=0.5;entryY=0;entryDx=0;entryDy=0;" edge="1" parent="1" source="NtfHxoDCMZl6DEECY9gm-149" target="NtfHxoDCMZl6DEECY9gm-59">
          <mxGeometry relative="1" as="geometry" />
        </mxCell>
        <mxCell id="NtfHxoDCMZl6DEECY9gm-56" value="Requer" style="rhombus;whiteSpace=wrap;html=1;" vertex="1" parent="1">
          <mxGeometry x="870" y="880" width="80" height="80" as="geometry" />
        </mxCell>
        <mxCell id="NtfHxoDCMZl6DEECY9gm-127" style="edgeStyle=orthogonalEdgeStyle;rounded=0;orthogonalLoop=1;jettySize=auto;html=1;entryX=0.5;entryY=0;entryDx=0;entryDy=0;" edge="1" parent="1" source="NtfHxoDCMZl6DEECY9gm-59" target="NtfHxoDCMZl6DEECY9gm-115">
          <mxGeometry relative="1" as="geometry" />
        </mxCell>
        <mxCell id="NtfHxoDCMZl6DEECY9gm-59" value="Enfermeiras" style="rounded=1;whiteSpace=wrap;html=1;arcSize=50;" vertex="1" parent="1">
          <mxGeometry x="850" y="995" width="120" height="60" as="geometry" />
        </mxCell>
        <mxCell id="NtfHxoDCMZl6DEECY9gm-60" value="cpf" style="ellipse;whiteSpace=wrap;html=1;fillColor=#fff2cc;strokeColor=#d6b656;" vertex="1" parent="1">
          <mxGeometry x="1170" y="1010" width="70" height="30" as="geometry" />
        </mxCell>
        <mxCell id="NtfHxoDCMZl6DEECY9gm-61" value="nome" style="ellipse;whiteSpace=wrap;html=1;fillColor=#fff2cc;strokeColor=#d6b656;" vertex="1" parent="1">
          <mxGeometry x="920" y="945" width="70" height="30" as="geometry" />
        </mxCell>
        <mxCell id="NtfHxoDCMZl6DEECY9gm-62" value="id" style="ellipse;whiteSpace=wrap;html=1;fillColor=#fff2cc;strokeColor=#d6b656;" vertex="1" parent="1">
          <mxGeometry x="1080" y="900" width="70" height="30" as="geometry" />
        </mxCell>
        <mxCell id="NtfHxoDCMZl6DEECY9gm-63" value="cne" style="ellipse;whiteSpace=wrap;html=1;fillColor=#fff2cc;strokeColor=#d6b656;" vertex="1" parent="1">
          <mxGeometry x="1080" y="1055" width="70" height="30" as="geometry" />
        </mxCell>
        <mxCell id="NtfHxoDCMZl6DEECY9gm-71" value="entrada" style="ellipse;whiteSpace=wrap;html=1;fillColor=#fff2cc;strokeColor=#d6b656;" vertex="1" parent="1">
          <mxGeometry x="460" y="880" width="70" height="30" as="geometry" />
        </mxCell>
        <mxCell id="NtfHxoDCMZl6DEECY9gm-72" value="previsão de alta" style="ellipse;whiteSpace=wrap;html=1;fillColor=#fff2cc;strokeColor=#d6b656;" vertex="1" parent="1">
          <mxGeometry x="485" y="840" width="70" height="30" as="geometry" />
        </mxCell>
        <mxCell id="NtfHxoDCMZl6DEECY9gm-133" style="edgeStyle=orthogonalEdgeStyle;rounded=0;orthogonalLoop=1;jettySize=auto;html=1;" edge="1" parent="1" source="NtfHxoDCMZl6DEECY9gm-73">
          <mxGeometry relative="1" as="geometry">
            <mxPoint x="650.0000000000002" y="860" as="targetPoint" />
          </mxGeometry>
        </mxCell>
        <mxCell id="NtfHxoDCMZl6DEECY9gm-73" value="procedimento" style="ellipse;whiteSpace=wrap;html=1;fillColor=#fff2cc;strokeColor=#d6b656;" vertex="1" parent="1">
          <mxGeometry x="550" y="780" width="70" height="30" as="geometry" />
        </mxCell>
        <mxCell id="NtfHxoDCMZl6DEECY9gm-82" value="Armazena" style="shape=cylinder3;whiteSpace=wrap;html=1;boundedLbl=1;backgroundOutline=1;size=15;" vertex="1" parent="1">
          <mxGeometry x="600" y="840" width="70" height="70" as="geometry" />
        </mxCell>
        <mxCell id="NtfHxoDCMZl6DEECY9gm-108" style="edgeStyle=orthogonalEdgeStyle;rounded=0;orthogonalLoop=1;jettySize=auto;html=1;entryX=0;entryY=1;entryDx=0;entryDy=0;" edge="1" parent="1" source="NtfHxoDCMZl6DEECY9gm-83" target="NtfHxoDCMZl6DEECY9gm-62">
          <mxGeometry relative="1" as="geometry" />
        </mxCell>
        <mxCell id="NtfHxoDCMZl6DEECY9gm-110" style="edgeStyle=orthogonalEdgeStyle;rounded=0;orthogonalLoop=1;jettySize=auto;html=1;entryX=0;entryY=0.5;entryDx=0;entryDy=0;" edge="1" parent="1" source="NtfHxoDCMZl6DEECY9gm-83" target="NtfHxoDCMZl6DEECY9gm-60">
          <mxGeometry relative="1" as="geometry" />
        </mxCell>
        <mxCell id="NtfHxoDCMZl6DEECY9gm-112" style="edgeStyle=orthogonalEdgeStyle;rounded=0;orthogonalLoop=1;jettySize=auto;html=1;entryX=0;entryY=0.5;entryDx=0;entryDy=0;" edge="1" parent="1" source="NtfHxoDCMZl6DEECY9gm-83" target="NtfHxoDCMZl6DEECY9gm-63">
          <mxGeometry relative="1" as="geometry" />
        </mxCell>
        <mxCell id="NtfHxoDCMZl6DEECY9gm-113" style="edgeStyle=orthogonalEdgeStyle;rounded=0;orthogonalLoop=1;jettySize=auto;html=1;entryX=1;entryY=0.5;entryDx=0;entryDy=0;" edge="1" parent="1" source="NtfHxoDCMZl6DEECY9gm-83" target="NtfHxoDCMZl6DEECY9gm-61">
          <mxGeometry relative="1" as="geometry">
            <mxPoint x="990" y="990" as="targetPoint" />
          </mxGeometry>
        </mxCell>
        <mxCell id="NtfHxoDCMZl6DEECY9gm-83" value="Armazena" style="shape=cylinder3;whiteSpace=wrap;html=1;boundedLbl=1;backgroundOutline=1;size=15;" vertex="1" parent="1">
          <mxGeometry x="1025" y="980" width="55" height="60" as="geometry" />
        </mxCell>
        <mxCell id="NtfHxoDCMZl6DEECY9gm-87" value="Armazena" style="shape=cylinder3;whiteSpace=wrap;html=1;boundedLbl=1;backgroundOutline=1;size=15;" vertex="1" parent="1">
          <mxGeometry x="885" y="680" width="50" height="60" as="geometry" />
        </mxCell>
        <mxCell id="NtfHxoDCMZl6DEECY9gm-94" value="armazena" style="shape=cylinder3;whiteSpace=wrap;html=1;boundedLbl=1;backgroundOutline=1;size=15;" vertex="1" parent="1">
          <mxGeometry x="870" y="460" width="50" height="60" as="geometry" />
        </mxCell>
        <mxCell id="NtfHxoDCMZl6DEECY9gm-98" style="edgeStyle=orthogonalEdgeStyle;rounded=0;orthogonalLoop=1;jettySize=auto;html=1;entryX=0.5;entryY=0;entryDx=0;entryDy=0;entryPerimeter=0;" edge="1" parent="1" source="2WAmzF2tmCw0uLwGECOJ-49" target="NtfHxoDCMZl6DEECY9gm-94">
          <mxGeometry relative="1" as="geometry">
            <Array as="points">
              <mxPoint x="895" y="435" />
            </Array>
          </mxGeometry>
        </mxCell>
        <mxCell id="NtfHxoDCMZl6DEECY9gm-99" style="edgeStyle=orthogonalEdgeStyle;rounded=0;orthogonalLoop=1;jettySize=auto;html=1;entryX=0.145;entryY=0;entryDx=0;entryDy=4.35;entryPerimeter=0;" edge="1" parent="1" source="2WAmzF2tmCw0uLwGECOJ-48" target="NtfHxoDCMZl6DEECY9gm-94">
          <mxGeometry relative="1" as="geometry" />
        </mxCell>
        <mxCell id="NtfHxoDCMZl6DEECY9gm-101" style="edgeStyle=orthogonalEdgeStyle;rounded=0;orthogonalLoop=1;jettySize=auto;html=1;entryX=0.855;entryY=0;entryDx=0;entryDy=4.35;entryPerimeter=0;" edge="1" parent="1" source="2WAmzF2tmCw0uLwGECOJ-47" target="NtfHxoDCMZl6DEECY9gm-94">
          <mxGeometry relative="1" as="geometry" />
        </mxCell>
        <mxCell id="NtfHxoDCMZl6DEECY9gm-103" style="edgeStyle=orthogonalEdgeStyle;rounded=0;orthogonalLoop=1;jettySize=auto;html=1;entryX=0;entryY=1;entryDx=0;entryDy=-15;entryPerimeter=0;" edge="1" parent="1" source="NtfHxoDCMZl6DEECY9gm-59" target="NtfHxoDCMZl6DEECY9gm-83">
          <mxGeometry relative="1" as="geometry" />
        </mxCell>
        <mxCell id="NtfHxoDCMZl6DEECY9gm-114" style="edgeStyle=orthogonalEdgeStyle;rounded=0;orthogonalLoop=1;jettySize=auto;html=1;entryX=0.5;entryY=0;entryDx=0;entryDy=0;" edge="1" parent="1" source="NtfHxoDCMZl6DEECY9gm-115" target="NtfHxoDCMZl6DEECY9gm-116">
          <mxGeometry relative="1" as="geometry" />
        </mxCell>
        <mxCell id="NtfHxoDCMZl6DEECY9gm-115" value="Requer" style="rhombus;whiteSpace=wrap;html=1;" vertex="1" parent="1">
          <mxGeometry x="870" y="1110" width="80" height="80" as="geometry" />
        </mxCell>
        <mxCell id="NtfHxoDCMZl6DEECY9gm-116" value="Médico" style="rounded=1;whiteSpace=wrap;html=1;arcSize=50;" vertex="1" parent="1">
          <mxGeometry x="850" y="1225" width="120" height="60" as="geometry" />
        </mxCell>
        <mxCell id="NtfHxoDCMZl6DEECY9gm-117" value="cpf" style="ellipse;whiteSpace=wrap;html=1;fillColor=#fff2cc;strokeColor=#d6b656;" vertex="1" parent="1">
          <mxGeometry x="1170" y="1240" width="70" height="30" as="geometry" />
        </mxCell>
        <mxCell id="NtfHxoDCMZl6DEECY9gm-118" value="nome" style="ellipse;whiteSpace=wrap;html=1;fillColor=#fff2cc;strokeColor=#d6b656;" vertex="1" parent="1">
          <mxGeometry x="920" y="1175" width="70" height="30" as="geometry" />
        </mxCell>
        <mxCell id="NtfHxoDCMZl6DEECY9gm-119" value="id" style="ellipse;whiteSpace=wrap;html=1;fillColor=#fff2cc;strokeColor=#d6b656;" vertex="1" parent="1">
          <mxGeometry x="1080" y="1130" width="70" height="30" as="geometry" />
        </mxCell>
        <mxCell id="NtfHxoDCMZl6DEECY9gm-120" value="Especialidade" style="ellipse;whiteSpace=wrap;html=1;fillColor=#fff2cc;strokeColor=#d6b656;" vertex="1" parent="1">
          <mxGeometry x="1080" y="1285" width="90" height="35" as="geometry" />
        </mxCell>
        <mxCell id="NtfHxoDCMZl6DEECY9gm-121" style="edgeStyle=orthogonalEdgeStyle;rounded=0;orthogonalLoop=1;jettySize=auto;html=1;entryX=0;entryY=1;entryDx=0;entryDy=0;" edge="1" parent="1" source="NtfHxoDCMZl6DEECY9gm-125" target="NtfHxoDCMZl6DEECY9gm-119">
          <mxGeometry relative="1" as="geometry" />
        </mxCell>
        <mxCell id="NtfHxoDCMZl6DEECY9gm-122" style="edgeStyle=orthogonalEdgeStyle;rounded=0;orthogonalLoop=1;jettySize=auto;html=1;entryX=0;entryY=0.5;entryDx=0;entryDy=0;" edge="1" parent="1" source="NtfHxoDCMZl6DEECY9gm-125" target="NtfHxoDCMZl6DEECY9gm-117">
          <mxGeometry relative="1" as="geometry" />
        </mxCell>
        <mxCell id="NtfHxoDCMZl6DEECY9gm-123" style="edgeStyle=orthogonalEdgeStyle;rounded=0;orthogonalLoop=1;jettySize=auto;html=1;entryX=0;entryY=0.5;entryDx=0;entryDy=0;" edge="1" parent="1" source="NtfHxoDCMZl6DEECY9gm-125" target="NtfHxoDCMZl6DEECY9gm-120">
          <mxGeometry relative="1" as="geometry" />
        </mxCell>
        <mxCell id="NtfHxoDCMZl6DEECY9gm-124" style="edgeStyle=orthogonalEdgeStyle;rounded=0;orthogonalLoop=1;jettySize=auto;html=1;entryX=1;entryY=0.5;entryDx=0;entryDy=0;" edge="1" parent="1" source="NtfHxoDCMZl6DEECY9gm-125" target="NtfHxoDCMZl6DEECY9gm-118">
          <mxGeometry relative="1" as="geometry">
            <mxPoint x="990" y="1220" as="targetPoint" />
          </mxGeometry>
        </mxCell>
        <mxCell id="NtfHxoDCMZl6DEECY9gm-125" value="Armazena" style="shape=cylinder3;whiteSpace=wrap;html=1;boundedLbl=1;backgroundOutline=1;size=15;" vertex="1" parent="1">
          <mxGeometry x="1025" y="1210" width="55" height="60" as="geometry" />
        </mxCell>
        <mxCell id="NtfHxoDCMZl6DEECY9gm-126" style="edgeStyle=orthogonalEdgeStyle;rounded=0;orthogonalLoop=1;jettySize=auto;html=1;entryX=0;entryY=1;entryDx=0;entryDy=-15;entryPerimeter=0;" edge="1" parent="1" source="NtfHxoDCMZl6DEECY9gm-116" target="NtfHxoDCMZl6DEECY9gm-125">
          <mxGeometry relative="1" as="geometry" />
        </mxCell>
        <mxCell id="NtfHxoDCMZl6DEECY9gm-139" style="edgeStyle=orthogonalEdgeStyle;rounded=0;orthogonalLoop=1;jettySize=auto;html=1;" edge="1" parent="1" source="NtfHxoDCMZl6DEECY9gm-128">
          <mxGeometry relative="1" as="geometry">
            <mxPoint x="1010" y="730" as="targetPoint" />
          </mxGeometry>
        </mxCell>
        <mxCell id="NtfHxoDCMZl6DEECY9gm-128" value="Valor da diária" style="ellipse;whiteSpace=wrap;html=1;fillColor=#fff2cc;strokeColor=#d6b656;" vertex="1" parent="1">
          <mxGeometry x="1030" y="730" width="90" height="40" as="geometry" />
        </mxCell>
        <mxCell id="NtfHxoDCMZl6DEECY9gm-130" style="edgeStyle=orthogonalEdgeStyle;rounded=0;orthogonalLoop=1;jettySize=auto;html=1;entryX=0;entryY=1;entryDx=0;entryDy=-15;entryPerimeter=0;" edge="1" parent="1" source="NtfHxoDCMZl6DEECY9gm-71" target="NtfHxoDCMZl6DEECY9gm-82">
          <mxGeometry relative="1" as="geometry" />
        </mxCell>
        <mxCell id="NtfHxoDCMZl6DEECY9gm-131" style="edgeStyle=orthogonalEdgeStyle;rounded=0;orthogonalLoop=1;jettySize=auto;html=1;entryX=0;entryY=0;entryDx=0;entryDy=15;entryPerimeter=0;" edge="1" parent="1" source="NtfHxoDCMZl6DEECY9gm-72" target="NtfHxoDCMZl6DEECY9gm-82">
          <mxGeometry relative="1" as="geometry" />
        </mxCell>
        <mxCell id="NtfHxoDCMZl6DEECY9gm-135" style="edgeStyle=orthogonalEdgeStyle;rounded=0;orthogonalLoop=1;jettySize=auto;html=1;entryX=1;entryY=0;entryDx=0;entryDy=30;entryPerimeter=0;" edge="1" parent="1" source="NtfHxoDCMZl6DEECY9gm-38" target="NtfHxoDCMZl6DEECY9gm-82">
          <mxGeometry relative="1" as="geometry" />
        </mxCell>
        <mxCell id="NtfHxoDCMZl6DEECY9gm-138" style="edgeStyle=orthogonalEdgeStyle;rounded=0;orthogonalLoop=1;jettySize=auto;html=1;entryX=0.951;entryY=0.369;entryDx=0;entryDy=0;entryPerimeter=0;" edge="1" parent="1" source="NtfHxoDCMZl6DEECY9gm-46" target="NtfHxoDCMZl6DEECY9gm-48">
          <mxGeometry relative="1" as="geometry" />
        </mxCell>
        <mxCell id="NtfHxoDCMZl6DEECY9gm-140" style="edgeStyle=orthogonalEdgeStyle;rounded=0;orthogonalLoop=1;jettySize=auto;html=1;entryX=0.5;entryY=0;entryDx=0;entryDy=0;entryPerimeter=0;" edge="1" parent="1" source="NtfHxoDCMZl6DEECY9gm-48" target="NtfHxoDCMZl6DEECY9gm-87">
          <mxGeometry relative="1" as="geometry" />
        </mxCell>
        <mxCell id="NtfHxoDCMZl6DEECY9gm-142" style="edgeStyle=orthogonalEdgeStyle;rounded=0;orthogonalLoop=1;jettySize=auto;html=1;entryX=0.502;entryY=1.042;entryDx=0;entryDy=0;entryPerimeter=0;" edge="1" parent="1" source="NtfHxoDCMZl6DEECY9gm-44" target="NtfHxoDCMZl6DEECY9gm-87">
          <mxGeometry relative="1" as="geometry" />
        </mxCell>
        <mxCell id="NtfHxoDCMZl6DEECY9gm-144" value="1" style="text;html=1;align=center;verticalAlign=middle;whiteSpace=wrap;rounded=0;" vertex="1" parent="1">
          <mxGeometry x="720" y="930" width="60" height="30" as="geometry" />
        </mxCell>
        <mxCell id="NtfHxoDCMZl6DEECY9gm-145" style="edgeStyle=orthogonalEdgeStyle;rounded=0;orthogonalLoop=1;jettySize=auto;html=1;exitX=0.25;exitY=1;exitDx=0;exitDy=0;entryX=0.5;entryY=1;entryDx=0;entryDy=0;" edge="1" parent="1" source="NtfHxoDCMZl6DEECY9gm-144" target="NtfHxoDCMZl6DEECY9gm-144">
          <mxGeometry relative="1" as="geometry" />
        </mxCell>
        <mxCell id="NtfHxoDCMZl6DEECY9gm-146" value="N" style="text;html=1;align=center;verticalAlign=middle;whiteSpace=wrap;rounded=0;" vertex="1" parent="1">
          <mxGeometry x="840" y="740" width="60" height="30" as="geometry" />
        </mxCell>
        <mxCell id="NtfHxoDCMZl6DEECY9gm-148" value="1" style="text;html=1;align=center;verticalAlign=middle;whiteSpace=wrap;rounded=0;" vertex="1" parent="1">
          <mxGeometry x="900" y="655" width="60" height="30" as="geometry" />
        </mxCell>
        <mxCell id="NtfHxoDCMZl6DEECY9gm-150" value="" style="edgeStyle=orthogonalEdgeStyle;rounded=0;orthogonalLoop=1;jettySize=auto;html=1;entryX=0.5;entryY=0;entryDx=0;entryDy=0;" edge="1" parent="1" source="NtfHxoDCMZl6DEECY9gm-56" target="NtfHxoDCMZl6DEECY9gm-149">
          <mxGeometry relative="1" as="geometry">
            <mxPoint x="910" y="960" as="sourcePoint" />
            <mxPoint x="910" y="995" as="targetPoint" />
          </mxGeometry>
        </mxCell>
        <mxCell id="NtfHxoDCMZl6DEECY9gm-149" value="N" style="text;html=1;align=center;verticalAlign=middle;whiteSpace=wrap;rounded=0;" vertex="1" parent="1">
          <mxGeometry x="865" y="970" width="60" height="30" as="geometry" />
        </mxCell>
        <mxCell id="NtfHxoDCMZl6DEECY9gm-151" value="1" style="text;html=1;align=center;verticalAlign=middle;whiteSpace=wrap;rounded=0;" vertex="1" parent="1">
          <mxGeometry x="850" y="1190" width="60" height="30" as="geometry" />
        </mxCell>
        <mxCell id="NtfHxoDCMZl6DEECY9gm-153" value="Armazena" style="shape=cylinder3;whiteSpace=wrap;html=1;boundedLbl=1;backgroundOutline=1;size=15;" vertex="1" parent="1">
          <mxGeometry x="395" y="220" width="60" height="80" as="geometry" />
        </mxCell>
        <mxCell id="NtfHxoDCMZl6DEECY9gm-155" style="edgeStyle=orthogonalEdgeStyle;rounded=0;orthogonalLoop=1;jettySize=auto;html=1;entryX=0.145;entryY=1;entryDx=0;entryDy=-4.35;entryPerimeter=0;" edge="1" parent="1" source="2WAmzF2tmCw0uLwGECOJ-55" target="NtfHxoDCMZl6DEECY9gm-153">
          <mxGeometry relative="1" as="geometry" />
        </mxCell>
        <mxCell id="NtfHxoDCMZl6DEECY9gm-156" value="nome" style="ellipse;whiteSpace=wrap;html=1;fillColor=#ffe6cc;strokeColor=#d79b00;" vertex="1" parent="1">
          <mxGeometry x="325" y="180" width="40" height="30" as="geometry" />
        </mxCell>
        <mxCell id="NtfHxoDCMZl6DEECY9gm-157" style="edgeStyle=orthogonalEdgeStyle;rounded=0;orthogonalLoop=1;jettySize=auto;html=1;entryX=0;entryY=1;entryDx=0;entryDy=-15;entryPerimeter=0;" edge="1" parent="1" source="NtfHxoDCMZl6DEECY9gm-156" target="NtfHxoDCMZl6DEECY9gm-153">
          <mxGeometry relative="1" as="geometry" />
        </mxCell>
        <mxCell id="NtfHxoDCMZl6DEECY9gm-158" value="endereço" style="ellipse;whiteSpace=wrap;html=1;fillColor=#ffe6cc;strokeColor=#d79b00;" vertex="1" parent="1">
          <mxGeometry x="395" y="140" width="60" height="30" as="geometry" />
        </mxCell>
        <mxCell id="NtfHxoDCMZl6DEECY9gm-159" style="edgeStyle=orthogonalEdgeStyle;rounded=0;orthogonalLoop=1;jettySize=auto;html=1;entryX=0.5;entryY=0;entryDx=0;entryDy=0;entryPerimeter=0;" edge="1" parent="1" source="NtfHxoDCMZl6DEECY9gm-158" target="NtfHxoDCMZl6DEECY9gm-153">
          <mxGeometry relative="1" as="geometry" />
        </mxCell>
        <mxCell id="NtfHxoDCMZl6DEECY9gm-160" style="edgeStyle=orthogonalEdgeStyle;rounded=0;orthogonalLoop=1;jettySize=auto;html=1;entryX=1;entryY=1;entryDx=0;entryDy=-15;entryPerimeter=0;" edge="1" parent="1" source="2WAmzF2tmCw0uLwGECOJ-52" target="NtfHxoDCMZl6DEECY9gm-153">
          <mxGeometry relative="1" as="geometry" />
        </mxCell>
        <mxCell id="NtfHxoDCMZl6DEECY9gm-161" style="edgeStyle=orthogonalEdgeStyle;rounded=0;orthogonalLoop=1;jettySize=auto;html=1;entryX=1;entryY=0;entryDx=0;entryDy=15;entryPerimeter=0;" edge="1" parent="1" source="2WAmzF2tmCw0uLwGECOJ-56" target="NtfHxoDCMZl6DEECY9gm-153">
          <mxGeometry relative="1" as="geometry" />
        </mxCell>
        <mxCell id="NtfHxoDCMZl6DEECY9gm-163" value="Armazena" style="shape=cylinder3;whiteSpace=wrap;html=1;boundedLbl=1;backgroundOutline=1;size=15;" vertex="1" parent="1">
          <mxGeometry x="545" y="-30" width="60" height="80" as="geometry" />
        </mxCell>
        <mxCell id="NtfHxoDCMZl6DEECY9gm-164" style="edgeStyle=orthogonalEdgeStyle;rounded=0;orthogonalLoop=1;jettySize=auto;html=1;entryX=0;entryY=0;entryDx=0;entryDy=52.5;entryPerimeter=0;" edge="1" parent="1" source="2WAmzF2tmCw0uLwGECOJ-24" target="NtfHxoDCMZl6DEECY9gm-163">
          <mxGeometry relative="1" as="geometry" />
        </mxCell>
        <mxCell id="NtfHxoDCMZl6DEECY9gm-165" style="edgeStyle=orthogonalEdgeStyle;rounded=0;orthogonalLoop=1;jettySize=auto;html=1;entryX=0;entryY=0;entryDx=0;entryDy=15;entryPerimeter=0;" edge="1" parent="1" source="2WAmzF2tmCw0uLwGECOJ-17" target="NtfHxoDCMZl6DEECY9gm-163">
          <mxGeometry relative="1" as="geometry" />
        </mxCell>
        <mxCell id="NtfHxoDCMZl6DEECY9gm-166" style="edgeStyle=orthogonalEdgeStyle;rounded=0;orthogonalLoop=1;jettySize=auto;html=1;entryX=1;entryY=0;entryDx=0;entryDy=27.5;entryPerimeter=0;" edge="1" parent="1" source="2WAmzF2tmCw0uLwGECOJ-19" target="NtfHxoDCMZl6DEECY9gm-163">
          <mxGeometry relative="1" as="geometry" />
        </mxCell>
        <mxCell id="NtfHxoDCMZl6DEECY9gm-167" style="edgeStyle=orthogonalEdgeStyle;rounded=0;orthogonalLoop=1;jettySize=auto;html=1;entryX=1;entryY=1;entryDx=0;entryDy=-15;entryPerimeter=0;" edge="1" parent="1" source="2WAmzF2tmCw0uLwGECOJ-23" target="NtfHxoDCMZl6DEECY9gm-163">
          <mxGeometry relative="1" as="geometry" />
        </mxCell>
        <mxCell id="NtfHxoDCMZl6DEECY9gm-168" style="edgeStyle=orthogonalEdgeStyle;rounded=0;orthogonalLoop=1;jettySize=auto;html=1;entryX=0.5;entryY=1;entryDx=0;entryDy=0;entryPerimeter=0;" edge="1" parent="1" source="2WAmzF2tmCw0uLwGECOJ-8" target="NtfHxoDCMZl6DEECY9gm-163">
          <mxGeometry relative="1" as="geometry" />
        </mxCell>
        <mxCell id="NtfHxoDCMZl6DEECY9gm-169" value="1NF" style="text;html=1;align=center;verticalAlign=middle;whiteSpace=wrap;rounded=0;" vertex="1" parent="1">
          <mxGeometry x="140" y="65" width="60" height="30" as="geometry" />
        </mxCell>
        <mxCell id="NtfHxoDCMZl6DEECY9gm-170" value="2NF" style="text;html=1;align=center;verticalAlign=middle;whiteSpace=wrap;rounded=0;" vertex="1" parent="1">
          <mxGeometry x="140" y="310" width="60" height="30" as="geometry" />
        </mxCell>
        <mxCell id="NtfHxoDCMZl6DEECY9gm-171" style="edgeStyle=orthogonalEdgeStyle;rounded=0;orthogonalLoop=1;jettySize=auto;html=1;entryX=0;entryY=0;entryDx=0;entryDy=37.5;entryPerimeter=0;" edge="1" parent="1" source="2WAmzF2tmCw0uLwGECOJ-32" target="NtfHxoDCMZl6DEECY9gm-94">
          <mxGeometry relative="1" as="geometry" />
        </mxCell>
        <mxCell id="NtfHxoDCMZl6DEECY9gm-172" style="edgeStyle=orthogonalEdgeStyle;rounded=0;orthogonalLoop=1;jettySize=auto;html=1;entryX=0.167;entryY=1;entryDx=0;entryDy=0;entryPerimeter=0;" edge="1" parent="1" source="NtfHxoDCMZl6DEECY9gm-163" target="NtfHxoDCMZl6DEECY9gm-116">
          <mxGeometry relative="1" as="geometry" />
        </mxCell>
        <mxCell id="NtfHxoDCMZl6DEECY9gm-177" style="edgeStyle=orthogonalEdgeStyle;rounded=0;orthogonalLoop=1;jettySize=auto;html=1;" edge="1" parent="1" source="NtfHxoDCMZl6DEECY9gm-174" target="NtfHxoDCMZl6DEECY9gm-15">
          <mxGeometry relative="1" as="geometry" />
        </mxCell>
        <mxCell id="NtfHxoDCMZl6DEECY9gm-174" value="Realiza" style="rhombus;whiteSpace=wrap;html=1;" vertex="1" parent="1">
          <mxGeometry x="450" y="1105" width="80" height="80" as="geometry" />
        </mxCell>
        <mxCell id="NtfHxoDCMZl6DEECY9gm-178" style="edgeStyle=orthogonalEdgeStyle;rounded=0;orthogonalLoop=1;jettySize=auto;html=1;" edge="1" parent="1" source="NtfHxoDCMZl6DEECY9gm-179" target="NtfHxoDCMZl6DEECY9gm-181">
          <mxGeometry relative="1" as="geometry" />
        </mxCell>
        <mxCell id="NtfHxoDCMZl6DEECY9gm-179" value="médicos" style="rounded=1;whiteSpace=wrap;html=1;arcSize=50;" vertex="1" parent="1">
          <mxGeometry x="150" y="1565" width="120" height="60" as="geometry" />
        </mxCell>
        <mxCell id="NtfHxoDCMZl6DEECY9gm-180" style="edgeStyle=orthogonalEdgeStyle;rounded=0;orthogonalLoop=1;jettySize=auto;html=1;entryX=0;entryY=0.5;entryDx=0;entryDy=0;" edge="1" parent="1" source="NtfHxoDCMZl6DEECY9gm-181" target="NtfHxoDCMZl6DEECY9gm-184">
          <mxGeometry relative="1" as="geometry" />
        </mxCell>
        <mxCell id="NtfHxoDCMZl6DEECY9gm-181" value="realiza" style="rhombus;whiteSpace=wrap;html=1;" vertex="1" parent="1">
          <mxGeometry x="350" y="1555" width="80" height="80" as="geometry" />
        </mxCell>
        <mxCell id="NtfHxoDCMZl6DEECY9gm-182" value="&lt;div&gt;1&lt;/div&gt;" style="text;html=1;align=center;verticalAlign=middle;resizable=0;points=[];autosize=1;strokeColor=none;fillColor=none;" vertex="1" parent="1">
          <mxGeometry x="320" y="1580" width="30" height="30" as="geometry" />
        </mxCell>
        <mxCell id="NtfHxoDCMZl6DEECY9gm-183" style="edgeStyle=orthogonalEdgeStyle;rounded=0;orthogonalLoop=1;jettySize=auto;html=1;entryX=0.5;entryY=0;entryDx=0;entryDy=0;" edge="1" parent="1" source="NtfHxoDCMZl6DEECY9gm-184" target="NtfHxoDCMZl6DEECY9gm-187">
          <mxGeometry relative="1" as="geometry" />
        </mxCell>
        <mxCell id="NtfHxoDCMZl6DEECY9gm-184" value="cadastro" style="rounded=1;whiteSpace=wrap;html=1;arcSize=50;" vertex="1" parent="1">
          <mxGeometry x="500" y="1565" width="120" height="60" as="geometry" />
        </mxCell>
        <mxCell id="NtfHxoDCMZl6DEECY9gm-185" value="N" style="text;html=1;align=center;verticalAlign=middle;resizable=0;points=[];autosize=1;strokeColor=none;fillColor=none;" vertex="1" parent="1">
          <mxGeometry x="430" y="1580" width="30" height="30" as="geometry" />
        </mxCell>
        <mxCell id="NtfHxoDCMZl6DEECY9gm-186" style="edgeStyle=orthogonalEdgeStyle;rounded=0;orthogonalLoop=1;jettySize=auto;html=1;" edge="1" parent="1" source="NtfHxoDCMZl6DEECY9gm-187" target="NtfHxoDCMZl6DEECY9gm-188">
          <mxGeometry relative="1" as="geometry" />
        </mxCell>
        <mxCell id="NtfHxoDCMZl6DEECY9gm-187" value="realiza" style="rhombus;whiteSpace=wrap;html=1;" vertex="1" parent="1">
          <mxGeometry x="640" y="1655" width="80" height="80" as="geometry" />
        </mxCell>
        <mxCell id="NtfHxoDCMZl6DEECY9gm-188" value="armazenamento" style="shape=cylinder3;whiteSpace=wrap;html=1;boundedLbl=1;backgroundOutline=1;size=15;" vertex="1" parent="1">
          <mxGeometry x="770" y="1655" width="60" height="80" as="geometry" />
        </mxCell>
        <mxCell id="NtfHxoDCMZl6DEECY9gm-189" value="cpf" style="ellipse;whiteSpace=wrap;html=1;fillColor=#dae8fc;strokeColor=#6c8ebf;" vertex="1" parent="1">
          <mxGeometry x="525" y="1360" width="60" height="40" as="geometry" />
        </mxCell>
        <mxCell id="NtfHxoDCMZl6DEECY9gm-190" value="endereço" style="ellipse;whiteSpace=wrap;html=1;fillColor=#dae8fc;strokeColor=#6c8ebf;" vertex="1" parent="1">
          <mxGeometry x="645" y="1360" width="60" height="40" as="geometry" />
        </mxCell>
        <mxCell id="NtfHxoDCMZl6DEECY9gm-191" value="especialidade" style="ellipse;whiteSpace=wrap;html=1;fillColor=#dae8fc;strokeColor=#6c8ebf;" vertex="1" parent="1">
          <mxGeometry x="700" y="1470" width="80" height="40" as="geometry" />
        </mxCell>
        <mxCell id="NtfHxoDCMZl6DEECY9gm-192" value="nome" style="ellipse;whiteSpace=wrap;html=1;fillColor=#dae8fc;strokeColor=#6c8ebf;" vertex="1" parent="1">
          <mxGeometry x="420" y="1420" width="60" height="40" as="geometry" />
        </mxCell>
        <mxCell id="NtfHxoDCMZl6DEECY9gm-193" style="edgeStyle=orthogonalEdgeStyle;rounded=0;orthogonalLoop=1;jettySize=auto;html=1;entryX=0;entryY=0.5;entryDx=0;entryDy=0;" edge="1" parent="1" source="NtfHxoDCMZl6DEECY9gm-194" target="NtfHxoDCMZl6DEECY9gm-196">
          <mxGeometry relative="1" as="geometry" />
        </mxCell>
        <mxCell id="NtfHxoDCMZl6DEECY9gm-194" value="cliente" style="rounded=1;whiteSpace=wrap;html=1;arcSize=50;" vertex="1" parent="1">
          <mxGeometry x="150" y="1810" width="120" height="60" as="geometry" />
        </mxCell>
        <mxCell id="NtfHxoDCMZl6DEECY9gm-195" style="edgeStyle=orthogonalEdgeStyle;rounded=0;orthogonalLoop=1;jettySize=auto;html=1;entryX=0;entryY=0.5;entryDx=0;entryDy=0;" edge="1" parent="1" source="NtfHxoDCMZl6DEECY9gm-196" target="NtfHxoDCMZl6DEECY9gm-199">
          <mxGeometry relative="1" as="geometry" />
        </mxCell>
        <mxCell id="NtfHxoDCMZl6DEECY9gm-196" value="realiza" style="rhombus;whiteSpace=wrap;html=1;" vertex="1" parent="1">
          <mxGeometry x="350" y="1800" width="80" height="80" as="geometry" />
        </mxCell>
        <mxCell id="NtfHxoDCMZl6DEECY9gm-197" style="edgeStyle=orthogonalEdgeStyle;rounded=0;orthogonalLoop=1;jettySize=auto;html=1;entryX=0.5;entryY=0;entryDx=0;entryDy=0;" edge="1" parent="1" source="NtfHxoDCMZl6DEECY9gm-199" target="NtfHxoDCMZl6DEECY9gm-201">
          <mxGeometry relative="1" as="geometry" />
        </mxCell>
        <mxCell id="NtfHxoDCMZl6DEECY9gm-198" style="edgeStyle=orthogonalEdgeStyle;rounded=0;orthogonalLoop=1;jettySize=auto;html=1;entryX=0.5;entryY=1;entryDx=0;entryDy=0;entryPerimeter=0;" edge="1" parent="1" source="NtfHxoDCMZl6DEECY9gm-199" target="NtfHxoDCMZl6DEECY9gm-319">
          <mxGeometry relative="1" as="geometry">
            <mxPoint x="499.9999999999998" y="1770" as="targetPoint" />
            <Array as="points">
              <mxPoint x="465" y="1820" />
            </Array>
          </mxGeometry>
        </mxCell>
        <mxCell id="NtfHxoDCMZl6DEECY9gm-199" value="cadastro" style="rounded=1;whiteSpace=wrap;html=1;arcSize=50;" vertex="1" parent="1">
          <mxGeometry x="500" y="1810" width="120" height="60" as="geometry" />
        </mxCell>
        <mxCell id="NtfHxoDCMZl6DEECY9gm-200" style="edgeStyle=orthogonalEdgeStyle;rounded=0;orthogonalLoop=1;jettySize=auto;html=1;" edge="1" parent="1" source="NtfHxoDCMZl6DEECY9gm-201" target="NtfHxoDCMZl6DEECY9gm-208">
          <mxGeometry relative="1" as="geometry" />
        </mxCell>
        <mxCell id="NtfHxoDCMZl6DEECY9gm-201" value="realiza" style="rhombus;whiteSpace=wrap;html=1;" vertex="1" parent="1">
          <mxGeometry x="520" y="1970" width="80" height="80" as="geometry" />
        </mxCell>
        <mxCell id="NtfHxoDCMZl6DEECY9gm-202" style="edgeStyle=orthogonalEdgeStyle;rounded=0;orthogonalLoop=1;jettySize=auto;html=1;entryX=1;entryY=0.5;entryDx=0;entryDy=0;" edge="1" parent="1" source="NtfHxoDCMZl6DEECY9gm-203" target="NtfHxoDCMZl6DEECY9gm-210">
          <mxGeometry relative="1" as="geometry" />
        </mxCell>
        <mxCell id="NtfHxoDCMZl6DEECY9gm-203" value="&lt;div&gt;consulta&lt;/div&gt;&lt;div&gt;(especialidade)&lt;br&gt;&lt;/div&gt;" style="rounded=1;whiteSpace=wrap;html=1;arcSize=50;" vertex="1" parent="1">
          <mxGeometry x="740" y="1910" width="120" height="60" as="geometry" />
        </mxCell>
        <mxCell id="NtfHxoDCMZl6DEECY9gm-204" style="edgeStyle=orthogonalEdgeStyle;rounded=0;orthogonalLoop=1;jettySize=auto;html=1;entryX=0.5;entryY=1;entryDx=0;entryDy=0;entryPerimeter=0;" edge="1" parent="1" source="NtfHxoDCMZl6DEECY9gm-203" target="NtfHxoDCMZl6DEECY9gm-188">
          <mxGeometry relative="1" as="geometry" />
        </mxCell>
        <mxCell id="NtfHxoDCMZl6DEECY9gm-205" style="edgeStyle=orthogonalEdgeStyle;rounded=0;orthogonalLoop=1;jettySize=auto;html=1;entryX=0.5;entryY=1;entryDx=0;entryDy=0;" edge="1" parent="1" source="NtfHxoDCMZl6DEECY9gm-206" target="NtfHxoDCMZl6DEECY9gm-203">
          <mxGeometry relative="1" as="geometry" />
        </mxCell>
        <mxCell id="NtfHxoDCMZl6DEECY9gm-206" value="realiza" style="rhombus;whiteSpace=wrap;html=1;" vertex="1" parent="1">
          <mxGeometry x="760" y="2115" width="80" height="80" as="geometry" />
        </mxCell>
        <mxCell id="NtfHxoDCMZl6DEECY9gm-207" style="edgeStyle=orthogonalEdgeStyle;rounded=0;orthogonalLoop=1;jettySize=auto;html=1;entryX=0;entryY=0.5;entryDx=0;entryDy=0;" edge="1" parent="1" source="NtfHxoDCMZl6DEECY9gm-208" target="NtfHxoDCMZl6DEECY9gm-206">
          <mxGeometry relative="1" as="geometry" />
        </mxCell>
        <mxCell id="NtfHxoDCMZl6DEECY9gm-208" value="análise do convênio" style="rounded=1;whiteSpace=wrap;html=1;arcSize=50;" vertex="1" parent="1">
          <mxGeometry x="500" y="2125" width="120" height="60" as="geometry" />
        </mxCell>
        <mxCell id="NtfHxoDCMZl6DEECY9gm-209" style="edgeStyle=orthogonalEdgeStyle;rounded=0;orthogonalLoop=1;jettySize=auto;html=1;" edge="1" parent="1" source="NtfHxoDCMZl6DEECY9gm-210">
          <mxGeometry relative="1" as="geometry">
            <mxPoint x="260" y="1940" as="targetPoint" />
          </mxGeometry>
        </mxCell>
        <mxCell id="NtfHxoDCMZl6DEECY9gm-210" value="realiza" style="rhombus;whiteSpace=wrap;html=1;" vertex="1" parent="1">
          <mxGeometry x="320" y="1900" width="80" height="80" as="geometry" />
        </mxCell>
        <mxCell id="NtfHxoDCMZl6DEECY9gm-211" value="convênio" style="ellipse;whiteSpace=wrap;html=1;fillColor=#e1d5e7;strokeColor=#9673a6;" vertex="1" parent="1">
          <mxGeometry x="980" y="1800" width="70" height="50" as="geometry" />
        </mxCell>
        <mxCell id="NtfHxoDCMZl6DEECY9gm-212" value="nome" style="ellipse;whiteSpace=wrap;html=1;fillColor=#e1d5e7;strokeColor=#9673a6;" vertex="1" parent="1">
          <mxGeometry x="860" y="1810" width="70" height="50" as="geometry" />
        </mxCell>
        <mxCell id="NtfHxoDCMZl6DEECY9gm-213" value="cnpj" style="ellipse;whiteSpace=wrap;html=1;fillColor=#e1d5e7;strokeColor=#9673a6;" vertex="1" parent="1">
          <mxGeometry x="1010" y="1880" width="70" height="50" as="geometry" />
        </mxCell>
        <mxCell id="NtfHxoDCMZl6DEECY9gm-214" value="nascimento" style="ellipse;whiteSpace=wrap;html=1;fillColor=#ffe6cc;strokeColor=#d79b00;" vertex="1" parent="1">
          <mxGeometry x="540" y="1740" width="70" height="30" as="geometry" />
        </mxCell>
        <mxCell id="NtfHxoDCMZl6DEECY9gm-215" value="telefone" style="ellipse;whiteSpace=wrap;html=1;fillColor=#ffe6cc;strokeColor=#d79b00;" vertex="1" parent="1">
          <mxGeometry x="280" y="1680" width="70" height="30" as="geometry" />
        </mxCell>
        <mxCell id="NtfHxoDCMZl6DEECY9gm-216" value="email" style="ellipse;whiteSpace=wrap;html=1;fillColor=#ffe6cc;strokeColor=#d79b00;" vertex="1" parent="1">
          <mxGeometry x="475" y="1640" width="70" height="30" as="geometry" />
        </mxCell>
        <mxCell id="NtfHxoDCMZl6DEECY9gm-217" style="edgeStyle=none;rounded=0;orthogonalLoop=1;jettySize=auto;html=1;exitX=0.5;exitY=0;exitDx=0;exitDy=0;" edge="1" parent="1" source="NtfHxoDCMZl6DEECY9gm-199" target="NtfHxoDCMZl6DEECY9gm-199">
          <mxGeometry relative="1" as="geometry" />
        </mxCell>
        <mxCell id="NtfHxoDCMZl6DEECY9gm-218" style="edgeStyle=orthogonalEdgeStyle;rounded=0;orthogonalLoop=1;jettySize=auto;html=1;" edge="1" parent="1" source="NtfHxoDCMZl6DEECY9gm-219" target="NtfHxoDCMZl6DEECY9gm-226">
          <mxGeometry relative="1" as="geometry" />
        </mxCell>
        <mxCell id="NtfHxoDCMZl6DEECY9gm-219" value="&lt;div&gt;consulta/receita médica&lt;/div&gt;" style="rounded=1;whiteSpace=wrap;html=1;arcSize=50;" vertex="1" parent="1">
          <mxGeometry x="140" y="2220" width="120" height="60" as="geometry" />
        </mxCell>
        <mxCell id="NtfHxoDCMZl6DEECY9gm-220" style="edgeStyle=none;rounded=0;orthogonalLoop=1;jettySize=auto;html=1;entryX=0.5;entryY=0;entryDx=0;entryDy=0;" edge="1" parent="1" source="NtfHxoDCMZl6DEECY9gm-221" target="NtfHxoDCMZl6DEECY9gm-223">
          <mxGeometry relative="1" as="geometry" />
        </mxCell>
        <mxCell id="NtfHxoDCMZl6DEECY9gm-221" value="&lt;div&gt;consulta&lt;/div&gt;&lt;div&gt;(planilha)&lt;br&gt;&lt;/div&gt;" style="rounded=1;whiteSpace=wrap;html=1;arcSize=50;" vertex="1" parent="1">
          <mxGeometry x="140" y="1910" width="120" height="60" as="geometry" />
        </mxCell>
        <mxCell id="NtfHxoDCMZl6DEECY9gm-222" style="edgeStyle=none;rounded=0;orthogonalLoop=1;jettySize=auto;html=1;entryX=0.5;entryY=0;entryDx=0;entryDy=0;" edge="1" parent="1" source="NtfHxoDCMZl6DEECY9gm-223" target="NtfHxoDCMZl6DEECY9gm-219">
          <mxGeometry relative="1" as="geometry" />
        </mxCell>
        <mxCell id="NtfHxoDCMZl6DEECY9gm-223" value="realiza" style="rhombus;whiteSpace=wrap;html=1;" vertex="1" parent="1">
          <mxGeometry x="160" y="2020" width="80" height="80" as="geometry" />
        </mxCell>
        <mxCell id="NtfHxoDCMZl6DEECY9gm-224" style="edgeStyle=orthogonalEdgeStyle;rounded=0;orthogonalLoop=1;jettySize=auto;html=1;entryX=0;entryY=0.5;entryDx=0;entryDy=0;" edge="1" parent="1" source="NtfHxoDCMZl6DEECY9gm-226" target="NtfHxoDCMZl6DEECY9gm-227">
          <mxGeometry relative="1" as="geometry" />
        </mxCell>
        <mxCell id="NtfHxoDCMZl6DEECY9gm-225" style="edgeStyle=orthogonalEdgeStyle;rounded=0;orthogonalLoop=1;jettySize=auto;html=1;" edge="1" parent="1" source="NtfHxoDCMZl6DEECY9gm-226" target="NtfHxoDCMZl6DEECY9gm-229">
          <mxGeometry relative="1" as="geometry" />
        </mxCell>
        <mxCell id="NtfHxoDCMZl6DEECY9gm-226" value="realiza" style="rhombus;whiteSpace=wrap;html=1;" vertex="1" parent="1">
          <mxGeometry x="310" y="2210" width="80" height="80" as="geometry" />
        </mxCell>
        <mxCell id="NtfHxoDCMZl6DEECY9gm-227" value="Alta" style="rounded=1;whiteSpace=wrap;html=1;arcSize=50;fillColor=#d5e8d4;strokeColor=#82b366;" vertex="1" parent="1">
          <mxGeometry x="440" y="2220" width="120" height="60" as="geometry" />
        </mxCell>
        <mxCell id="NtfHxoDCMZl6DEECY9gm-228" style="edgeStyle=orthogonalEdgeStyle;rounded=0;orthogonalLoop=1;jettySize=auto;html=1;entryX=0.5;entryY=0;entryDx=0;entryDy=0;" edge="1" parent="1" source="NtfHxoDCMZl6DEECY9gm-229" target="NtfHxoDCMZl6DEECY9gm-248">
          <mxGeometry relative="1" as="geometry" />
        </mxCell>
        <mxCell id="NtfHxoDCMZl6DEECY9gm-229" value="Diagnóstico preciso" style="rounded=1;whiteSpace=wrap;html=1;arcSize=50;" vertex="1" parent="1">
          <mxGeometry x="290" y="2350" width="120" height="60" as="geometry" />
        </mxCell>
        <mxCell id="NtfHxoDCMZl6DEECY9gm-230" value="Text" style="text;html=1;align=center;verticalAlign=middle;whiteSpace=wrap;rounded=0;" vertex="1" parent="1">
          <mxGeometry x="260" y="2070" width="60" height="30" as="geometry" />
        </mxCell>
        <mxCell id="NtfHxoDCMZl6DEECY9gm-231" value="Text" style="text;html=1;align=center;verticalAlign=middle;whiteSpace=wrap;rounded=0;" vertex="1" parent="1">
          <mxGeometry x="270" y="2080" width="60" height="30" as="geometry" />
        </mxCell>
        <mxCell id="NtfHxoDCMZl6DEECY9gm-232" value="Text" style="text;html=1;align=center;verticalAlign=middle;whiteSpace=wrap;rounded=0;" vertex="1" parent="1">
          <mxGeometry x="280" y="2090" width="60" height="30" as="geometry" />
        </mxCell>
        <mxCell id="NtfHxoDCMZl6DEECY9gm-233" value="Text" style="text;html=1;align=center;verticalAlign=middle;whiteSpace=wrap;rounded=0;" vertex="1" parent="1">
          <mxGeometry x="290" y="2100" width="60" height="30" as="geometry" />
        </mxCell>
        <mxCell id="NtfHxoDCMZl6DEECY9gm-234" value="N" style="text;html=1;align=center;verticalAlign=middle;whiteSpace=wrap;rounded=0;" vertex="1" parent="1">
          <mxGeometry x="700" y="2310" width="60" height="30" as="geometry" />
        </mxCell>
        <mxCell id="NtfHxoDCMZl6DEECY9gm-235" value="N" style="text;html=1;align=center;verticalAlign=middle;whiteSpace=wrap;rounded=0;" vertex="1" parent="1">
          <mxGeometry x="305" y="2320" width="60" height="30" as="geometry" />
        </mxCell>
        <mxCell id="NtfHxoDCMZl6DEECY9gm-236" value="N" style="text;html=1;align=center;verticalAlign=middle;whiteSpace=wrap;rounded=0;" vertex="1" parent="1">
          <mxGeometry x="240" y="1910" width="60" height="30" as="geometry" />
        </mxCell>
        <mxCell id="NtfHxoDCMZl6DEECY9gm-237" value="N" style="text;html=1;align=center;verticalAlign=middle;whiteSpace=wrap;rounded=0;" vertex="1" parent="1">
          <mxGeometry x="800" y="1970" width="60" height="30" as="geometry" />
        </mxCell>
        <mxCell id="NtfHxoDCMZl6DEECY9gm-238" value="N" style="text;html=1;align=center;verticalAlign=middle;whiteSpace=wrap;rounded=0;" vertex="1" parent="1">
          <mxGeometry x="430" y="1810" width="60" height="30" as="geometry" />
        </mxCell>
        <mxCell id="NtfHxoDCMZl6DEECY9gm-239" value="1" style="text;html=1;align=center;verticalAlign=middle;whiteSpace=wrap;rounded=0;" vertex="1" parent="1">
          <mxGeometry x="280" y="1810" width="60" height="30" as="geometry" />
        </mxCell>
        <mxCell id="NtfHxoDCMZl6DEECY9gm-240" value="1" style="text;html=1;align=center;verticalAlign=middle;whiteSpace=wrap;rounded=0;" vertex="1" parent="1">
          <mxGeometry x="660" y="1670" width="60" height="30" as="geometry" />
        </mxCell>
        <mxCell id="NtfHxoDCMZl6DEECY9gm-241" value="1" style="text;html=1;align=center;verticalAlign=middle;whiteSpace=wrap;rounded=0;" vertex="1" parent="1">
          <mxGeometry x="760" y="1750" width="60" height="30" as="geometry" />
        </mxCell>
        <mxCell id="NtfHxoDCMZl6DEECY9gm-242" value="1" style="text;html=1;align=center;verticalAlign=middle;whiteSpace=wrap;rounded=0;" vertex="1" parent="1">
          <mxGeometry x="545" y="1870" width="60" height="30" as="geometry" />
        </mxCell>
        <mxCell id="NtfHxoDCMZl6DEECY9gm-243" value="1" style="text;html=1;align=center;verticalAlign=middle;whiteSpace=wrap;rounded=0;" vertex="1" parent="1">
          <mxGeometry x="545" y="2095" width="60" height="30" as="geometry" />
        </mxCell>
        <mxCell id="NtfHxoDCMZl6DEECY9gm-244" value="1" style="text;html=1;align=center;verticalAlign=middle;whiteSpace=wrap;rounded=0;" vertex="1" parent="1">
          <mxGeometry x="390" y="1910" width="60" height="30" as="geometry" />
        </mxCell>
        <mxCell id="NtfHxoDCMZl6DEECY9gm-245" value="1" style="text;html=1;align=center;verticalAlign=middle;whiteSpace=wrap;rounded=0;" vertex="1" parent="1">
          <mxGeometry x="190" y="2190" width="60" height="30" as="geometry" />
        </mxCell>
        <mxCell id="NtfHxoDCMZl6DEECY9gm-246" value="1" style="text;html=1;align=center;verticalAlign=middle;whiteSpace=wrap;rounded=0;" vertex="1" parent="1">
          <mxGeometry x="370" y="2210" width="60" height="30" as="geometry" />
        </mxCell>
        <mxCell id="NtfHxoDCMZl6DEECY9gm-247" style="edgeStyle=orthogonalEdgeStyle;rounded=0;orthogonalLoop=1;jettySize=auto;html=1;entryX=0;entryY=0.5;entryDx=0;entryDy=0;" edge="1" parent="1" source="NtfHxoDCMZl6DEECY9gm-248" target="NtfHxoDCMZl6DEECY9gm-251">
          <mxGeometry relative="1" as="geometry" />
        </mxCell>
        <mxCell id="NtfHxoDCMZl6DEECY9gm-248" value="Realiza" style="rhombus;whiteSpace=wrap;html=1;" vertex="1" parent="1">
          <mxGeometry x="310" y="2470" width="80" height="80" as="geometry" />
        </mxCell>
        <mxCell id="NtfHxoDCMZl6DEECY9gm-249" style="edgeStyle=orthogonalEdgeStyle;rounded=0;orthogonalLoop=1;jettySize=auto;html=1;entryX=0.5;entryY=1;entryDx=0;entryDy=0;" edge="1" parent="1" source="NtfHxoDCMZl6DEECY9gm-251" target="NtfHxoDCMZl6DEECY9gm-256">
          <mxGeometry relative="1" as="geometry" />
        </mxCell>
        <mxCell id="NtfHxoDCMZl6DEECY9gm-250" style="edgeStyle=orthogonalEdgeStyle;rounded=0;orthogonalLoop=1;jettySize=auto;html=1;" edge="1" parent="1" source="NtfHxoDCMZl6DEECY9gm-251" target="NtfHxoDCMZl6DEECY9gm-338">
          <mxGeometry relative="1" as="geometry" />
        </mxCell>
        <mxCell id="NtfHxoDCMZl6DEECY9gm-251" value="Confirmação do diagnóstico (INTERNAÇÃO)" style="rounded=1;whiteSpace=wrap;html=1;arcSize=50;" vertex="1" parent="1">
          <mxGeometry x="470" y="2480" width="120" height="60" as="geometry" />
        </mxCell>
        <mxCell id="NtfHxoDCMZl6DEECY9gm-252" value="1" style="text;html=1;align=center;verticalAlign=middle;whiteSpace=wrap;rounded=0;" vertex="1" parent="1">
          <mxGeometry x="420" y="2480" width="60" height="30" as="geometry" />
        </mxCell>
        <mxCell id="NtfHxoDCMZl6DEECY9gm-253" style="edgeStyle=orthogonalEdgeStyle;rounded=0;orthogonalLoop=1;jettySize=auto;html=1;" edge="1" parent="1" source="NtfHxoDCMZl6DEECY9gm-254" target="NtfHxoDCMZl6DEECY9gm-258">
          <mxGeometry relative="1" as="geometry" />
        </mxCell>
        <mxCell id="NtfHxoDCMZl6DEECY9gm-254" value="ALA Internação" style="rounded=1;whiteSpace=wrap;html=1;fillColor=#dae8fc;strokeColor=#6c8ebf;arcSize=50;" vertex="1" parent="1">
          <mxGeometry x="750" y="2340" width="120" height="60" as="geometry" />
        </mxCell>
        <mxCell id="NtfHxoDCMZl6DEECY9gm-255" style="edgeStyle=orthogonalEdgeStyle;rounded=0;orthogonalLoop=1;jettySize=auto;html=1;entryX=0.5;entryY=1;entryDx=0;entryDy=0;" edge="1" parent="1" source="NtfHxoDCMZl6DEECY9gm-256" target="NtfHxoDCMZl6DEECY9gm-254">
          <mxGeometry relative="1" as="geometry" />
        </mxCell>
        <mxCell id="NtfHxoDCMZl6DEECY9gm-256" value="Ocupa" style="rhombus;whiteSpace=wrap;html=1;" vertex="1" parent="1">
          <mxGeometry x="620" y="2390" width="80" height="80" as="geometry" />
        </mxCell>
        <mxCell id="NtfHxoDCMZl6DEECY9gm-257" style="edgeStyle=orthogonalEdgeStyle;rounded=0;orthogonalLoop=1;jettySize=auto;html=1;" edge="1" parent="1" source="NtfHxoDCMZl6DEECY9gm-258" target="NtfHxoDCMZl6DEECY9gm-260">
          <mxGeometry relative="1" as="geometry" />
        </mxCell>
        <mxCell id="NtfHxoDCMZl6DEECY9gm-258" value="Possui" style="rhombus;whiteSpace=wrap;html=1;" vertex="1" parent="1">
          <mxGeometry x="770" y="2230" width="80" height="80" as="geometry" />
        </mxCell>
        <mxCell id="NtfHxoDCMZl6DEECY9gm-259" style="edgeStyle=orthogonalEdgeStyle;rounded=0;orthogonalLoop=1;jettySize=auto;html=1;entryX=0.5;entryY=0;entryDx=0;entryDy=0;" edge="1" parent="1" source="NtfHxoDCMZl6DEECY9gm-260" target="NtfHxoDCMZl6DEECY9gm-268">
          <mxGeometry relative="1" as="geometry" />
        </mxCell>
        <mxCell id="NtfHxoDCMZl6DEECY9gm-260" value="Tipo de quarto" style="rounded=1;whiteSpace=wrap;html=1;fillColor=#dae8fc;strokeColor=#6c8ebf;arcSize=50;" vertex="1" parent="1">
          <mxGeometry x="890" y="2240" width="120" height="60" as="geometry" />
        </mxCell>
        <mxCell id="NtfHxoDCMZl6DEECY9gm-261" value="Apartamentos" style="ellipse;whiteSpace=wrap;html=1;fillColor=#fff2cc;strokeColor=#d6b656;" vertex="1" parent="1">
          <mxGeometry x="1150" y="2155" width="90" height="35" as="geometry" />
        </mxCell>
        <mxCell id="NtfHxoDCMZl6DEECY9gm-262" style="edgeStyle=orthogonalEdgeStyle;rounded=0;orthogonalLoop=1;jettySize=auto;html=1;entryX=0;entryY=0;entryDx=0;entryDy=0;" edge="1" parent="1" source="NtfHxoDCMZl6DEECY9gm-263" target="NtfHxoDCMZl6DEECY9gm-264">
          <mxGeometry relative="1" as="geometry" />
        </mxCell>
        <mxCell id="NtfHxoDCMZl6DEECY9gm-263" value="Número da Hospedagem" style="ellipse;whiteSpace=wrap;html=1;fillColor=#fff2cc;strokeColor=#d6b656;" vertex="1" parent="1">
          <mxGeometry x="960" y="2020" width="110" height="45" as="geometry" />
        </mxCell>
        <mxCell id="NtfHxoDCMZl6DEECY9gm-264" value="Enfermaria" style="ellipse;whiteSpace=wrap;html=1;fillColor=#f5f5f5;strokeColor=#666666;fontColor=#333333;" vertex="1" parent="1">
          <mxGeometry x="1010" y="2140" width="80" height="60" as="geometry" />
        </mxCell>
        <mxCell id="NtfHxoDCMZl6DEECY9gm-265" style="edgeStyle=orthogonalEdgeStyle;rounded=0;orthogonalLoop=1;jettySize=auto;html=1;entryX=0.5;entryY=0;entryDx=0;entryDy=0;" edge="1" parent="1" source="NtfHxoDCMZl6DEECY9gm-266" target="NtfHxoDCMZl6DEECY9gm-264">
          <mxGeometry relative="1" as="geometry" />
        </mxCell>
        <mxCell id="NtfHxoDCMZl6DEECY9gm-266" value="Quartos duplos" style="ellipse;whiteSpace=wrap;html=1;fillColor=#fff2cc;strokeColor=#d6b656;" vertex="1" parent="1">
          <mxGeometry x="1110" y="2090" width="70" height="30" as="geometry" />
        </mxCell>
        <mxCell id="NtfHxoDCMZl6DEECY9gm-267" style="edgeStyle=orthogonalEdgeStyle;rounded=0;orthogonalLoop=1;jettySize=auto;html=1;entryX=0.5;entryY=0;entryDx=0;entryDy=0;" edge="1" parent="1" source="NtfHxoDCMZl6DEECY9gm-317" target="NtfHxoDCMZl6DEECY9gm-270">
          <mxGeometry relative="1" as="geometry" />
        </mxCell>
        <mxCell id="NtfHxoDCMZl6DEECY9gm-268" value="Requer" style="rhombus;whiteSpace=wrap;html=1;" vertex="1" parent="1">
          <mxGeometry x="910" y="2350" width="80" height="80" as="geometry" />
        </mxCell>
        <mxCell id="NtfHxoDCMZl6DEECY9gm-269" style="edgeStyle=orthogonalEdgeStyle;rounded=0;orthogonalLoop=1;jettySize=auto;html=1;entryX=0.5;entryY=0;entryDx=0;entryDy=0;" edge="1" parent="1" source="NtfHxoDCMZl6DEECY9gm-270" target="NtfHxoDCMZl6DEECY9gm-292">
          <mxGeometry relative="1" as="geometry" />
        </mxCell>
        <mxCell id="NtfHxoDCMZl6DEECY9gm-270" value="Enfermeiras" style="rounded=1;whiteSpace=wrap;html=1;arcSize=50;" vertex="1" parent="1">
          <mxGeometry x="890" y="2465" width="120" height="60" as="geometry" />
        </mxCell>
        <mxCell id="NtfHxoDCMZl6DEECY9gm-271" value="cpf" style="ellipse;whiteSpace=wrap;html=1;fillColor=#fff2cc;strokeColor=#d6b656;" vertex="1" parent="1">
          <mxGeometry x="1210" y="2480" width="70" height="30" as="geometry" />
        </mxCell>
        <mxCell id="NtfHxoDCMZl6DEECY9gm-272" value="nome" style="ellipse;whiteSpace=wrap;html=1;fillColor=#fff2cc;strokeColor=#d6b656;" vertex="1" parent="1">
          <mxGeometry x="960" y="2415" width="70" height="30" as="geometry" />
        </mxCell>
        <mxCell id="NtfHxoDCMZl6DEECY9gm-273" value="id" style="ellipse;whiteSpace=wrap;html=1;fillColor=#fff2cc;strokeColor=#d6b656;" vertex="1" parent="1">
          <mxGeometry x="1120" y="2370" width="70" height="30" as="geometry" />
        </mxCell>
        <mxCell id="NtfHxoDCMZl6DEECY9gm-274" value="cne" style="ellipse;whiteSpace=wrap;html=1;fillColor=#fff2cc;strokeColor=#d6b656;" vertex="1" parent="1">
          <mxGeometry x="1120" y="2525" width="70" height="30" as="geometry" />
        </mxCell>
        <mxCell id="NtfHxoDCMZl6DEECY9gm-275" value="entrada" style="ellipse;whiteSpace=wrap;html=1;fillColor=#fff2cc;strokeColor=#d6b656;" vertex="1" parent="1">
          <mxGeometry x="500" y="2350" width="70" height="30" as="geometry" />
        </mxCell>
        <mxCell id="NtfHxoDCMZl6DEECY9gm-276" value="previsão de alta" style="ellipse;whiteSpace=wrap;html=1;fillColor=#fff2cc;strokeColor=#d6b656;" vertex="1" parent="1">
          <mxGeometry x="525" y="2310" width="70" height="30" as="geometry" />
        </mxCell>
        <mxCell id="NtfHxoDCMZl6DEECY9gm-277" style="edgeStyle=orthogonalEdgeStyle;rounded=0;orthogonalLoop=1;jettySize=auto;html=1;" edge="1" parent="1" source="NtfHxoDCMZl6DEECY9gm-278">
          <mxGeometry relative="1" as="geometry">
            <mxPoint x="690.0000000000002" y="2330" as="targetPoint" />
          </mxGeometry>
        </mxCell>
        <mxCell id="NtfHxoDCMZl6DEECY9gm-278" value="procedimento" style="ellipse;whiteSpace=wrap;html=1;fillColor=#fff2cc;strokeColor=#d6b656;" vertex="1" parent="1">
          <mxGeometry x="590" y="2250" width="70" height="30" as="geometry" />
        </mxCell>
        <mxCell id="NtfHxoDCMZl6DEECY9gm-279" value="Armazena" style="shape=cylinder3;whiteSpace=wrap;html=1;boundedLbl=1;backgroundOutline=1;size=15;" vertex="1" parent="1">
          <mxGeometry x="640" y="2310" width="70" height="70" as="geometry" />
        </mxCell>
        <mxCell id="NtfHxoDCMZl6DEECY9gm-280" style="edgeStyle=orthogonalEdgeStyle;rounded=0;orthogonalLoop=1;jettySize=auto;html=1;entryX=0;entryY=1;entryDx=0;entryDy=0;" edge="1" parent="1" source="NtfHxoDCMZl6DEECY9gm-284" target="NtfHxoDCMZl6DEECY9gm-273">
          <mxGeometry relative="1" as="geometry" />
        </mxCell>
        <mxCell id="NtfHxoDCMZl6DEECY9gm-281" style="edgeStyle=orthogonalEdgeStyle;rounded=0;orthogonalLoop=1;jettySize=auto;html=1;entryX=0;entryY=0.5;entryDx=0;entryDy=0;" edge="1" parent="1" source="NtfHxoDCMZl6DEECY9gm-284" target="NtfHxoDCMZl6DEECY9gm-271">
          <mxGeometry relative="1" as="geometry" />
        </mxCell>
        <mxCell id="NtfHxoDCMZl6DEECY9gm-282" style="edgeStyle=orthogonalEdgeStyle;rounded=0;orthogonalLoop=1;jettySize=auto;html=1;entryX=0;entryY=0.5;entryDx=0;entryDy=0;" edge="1" parent="1" source="NtfHxoDCMZl6DEECY9gm-284" target="NtfHxoDCMZl6DEECY9gm-274">
          <mxGeometry relative="1" as="geometry" />
        </mxCell>
        <mxCell id="NtfHxoDCMZl6DEECY9gm-283" style="edgeStyle=orthogonalEdgeStyle;rounded=0;orthogonalLoop=1;jettySize=auto;html=1;entryX=1;entryY=0.5;entryDx=0;entryDy=0;" edge="1" parent="1" source="NtfHxoDCMZl6DEECY9gm-284" target="NtfHxoDCMZl6DEECY9gm-272">
          <mxGeometry relative="1" as="geometry">
            <mxPoint x="1030" y="2460" as="targetPoint" />
          </mxGeometry>
        </mxCell>
        <mxCell id="NtfHxoDCMZl6DEECY9gm-284" value="Armazena" style="shape=cylinder3;whiteSpace=wrap;html=1;boundedLbl=1;backgroundOutline=1;size=15;" vertex="1" parent="1">
          <mxGeometry x="1065" y="2450" width="55" height="60" as="geometry" />
        </mxCell>
        <mxCell id="NtfHxoDCMZl6DEECY9gm-285" value="Armazena" style="shape=cylinder3;whiteSpace=wrap;html=1;boundedLbl=1;backgroundOutline=1;size=15;" vertex="1" parent="1">
          <mxGeometry x="925" y="2150" width="50" height="60" as="geometry" />
        </mxCell>
        <mxCell id="NtfHxoDCMZl6DEECY9gm-286" value="armazena" style="shape=cylinder3;whiteSpace=wrap;html=1;boundedLbl=1;backgroundOutline=1;size=15;" vertex="1" parent="1">
          <mxGeometry x="910" y="1930" width="50" height="60" as="geometry" />
        </mxCell>
        <mxCell id="NtfHxoDCMZl6DEECY9gm-287" style="edgeStyle=orthogonalEdgeStyle;rounded=0;orthogonalLoop=1;jettySize=auto;html=1;entryX=0.5;entryY=0;entryDx=0;entryDy=0;entryPerimeter=0;" edge="1" parent="1" source="NtfHxoDCMZl6DEECY9gm-213" target="NtfHxoDCMZl6DEECY9gm-286">
          <mxGeometry relative="1" as="geometry">
            <Array as="points">
              <mxPoint x="935" y="1905" />
            </Array>
          </mxGeometry>
        </mxCell>
        <mxCell id="NtfHxoDCMZl6DEECY9gm-288" style="edgeStyle=orthogonalEdgeStyle;rounded=0;orthogonalLoop=1;jettySize=auto;html=1;entryX=0.145;entryY=0;entryDx=0;entryDy=4.35;entryPerimeter=0;" edge="1" parent="1" source="NtfHxoDCMZl6DEECY9gm-212" target="NtfHxoDCMZl6DEECY9gm-286">
          <mxGeometry relative="1" as="geometry" />
        </mxCell>
        <mxCell id="NtfHxoDCMZl6DEECY9gm-289" style="edgeStyle=orthogonalEdgeStyle;rounded=0;orthogonalLoop=1;jettySize=auto;html=1;entryX=0.855;entryY=0;entryDx=0;entryDy=4.35;entryPerimeter=0;" edge="1" parent="1" source="NtfHxoDCMZl6DEECY9gm-211" target="NtfHxoDCMZl6DEECY9gm-286">
          <mxGeometry relative="1" as="geometry" />
        </mxCell>
        <mxCell id="NtfHxoDCMZl6DEECY9gm-290" style="edgeStyle=orthogonalEdgeStyle;rounded=0;orthogonalLoop=1;jettySize=auto;html=1;entryX=0;entryY=1;entryDx=0;entryDy=-15;entryPerimeter=0;" edge="1" parent="1" source="NtfHxoDCMZl6DEECY9gm-270" target="NtfHxoDCMZl6DEECY9gm-284">
          <mxGeometry relative="1" as="geometry" />
        </mxCell>
        <mxCell id="NtfHxoDCMZl6DEECY9gm-291" style="edgeStyle=orthogonalEdgeStyle;rounded=0;orthogonalLoop=1;jettySize=auto;html=1;entryX=0.5;entryY=0;entryDx=0;entryDy=0;" edge="1" parent="1" source="NtfHxoDCMZl6DEECY9gm-292" target="NtfHxoDCMZl6DEECY9gm-293">
          <mxGeometry relative="1" as="geometry" />
        </mxCell>
        <mxCell id="NtfHxoDCMZl6DEECY9gm-292" value="Requer" style="rhombus;whiteSpace=wrap;html=1;" vertex="1" parent="1">
          <mxGeometry x="910" y="2580" width="80" height="80" as="geometry" />
        </mxCell>
        <mxCell id="NtfHxoDCMZl6DEECY9gm-293" value="Médico" style="rounded=1;whiteSpace=wrap;html=1;arcSize=50;" vertex="1" parent="1">
          <mxGeometry x="890" y="2695" width="120" height="60" as="geometry" />
        </mxCell>
        <mxCell id="NtfHxoDCMZl6DEECY9gm-294" value="cpf" style="ellipse;whiteSpace=wrap;html=1;fillColor=#fff2cc;strokeColor=#d6b656;" vertex="1" parent="1">
          <mxGeometry x="1210" y="2710" width="70" height="30" as="geometry" />
        </mxCell>
        <mxCell id="NtfHxoDCMZl6DEECY9gm-295" value="nome" style="ellipse;whiteSpace=wrap;html=1;fillColor=#fff2cc;strokeColor=#d6b656;" vertex="1" parent="1">
          <mxGeometry x="960" y="2645" width="70" height="30" as="geometry" />
        </mxCell>
        <mxCell id="NtfHxoDCMZl6DEECY9gm-296" value="id" style="ellipse;whiteSpace=wrap;html=1;fillColor=#fff2cc;strokeColor=#d6b656;" vertex="1" parent="1">
          <mxGeometry x="1120" y="2600" width="70" height="30" as="geometry" />
        </mxCell>
        <mxCell id="NtfHxoDCMZl6DEECY9gm-297" value="Especialidade" style="ellipse;whiteSpace=wrap;html=1;fillColor=#fff2cc;strokeColor=#d6b656;" vertex="1" parent="1">
          <mxGeometry x="1120" y="2755" width="90" height="35" as="geometry" />
        </mxCell>
        <mxCell id="NtfHxoDCMZl6DEECY9gm-298" style="edgeStyle=orthogonalEdgeStyle;rounded=0;orthogonalLoop=1;jettySize=auto;html=1;entryX=0;entryY=1;entryDx=0;entryDy=0;" edge="1" parent="1" source="NtfHxoDCMZl6DEECY9gm-302" target="NtfHxoDCMZl6DEECY9gm-296">
          <mxGeometry relative="1" as="geometry" />
        </mxCell>
        <mxCell id="NtfHxoDCMZl6DEECY9gm-299" style="edgeStyle=orthogonalEdgeStyle;rounded=0;orthogonalLoop=1;jettySize=auto;html=1;entryX=0;entryY=0.5;entryDx=0;entryDy=0;" edge="1" parent="1" source="NtfHxoDCMZl6DEECY9gm-302" target="NtfHxoDCMZl6DEECY9gm-294">
          <mxGeometry relative="1" as="geometry" />
        </mxCell>
        <mxCell id="NtfHxoDCMZl6DEECY9gm-300" style="edgeStyle=orthogonalEdgeStyle;rounded=0;orthogonalLoop=1;jettySize=auto;html=1;entryX=0;entryY=0.5;entryDx=0;entryDy=0;" edge="1" parent="1" source="NtfHxoDCMZl6DEECY9gm-302" target="NtfHxoDCMZl6DEECY9gm-297">
          <mxGeometry relative="1" as="geometry" />
        </mxCell>
        <mxCell id="NtfHxoDCMZl6DEECY9gm-301" style="edgeStyle=orthogonalEdgeStyle;rounded=0;orthogonalLoop=1;jettySize=auto;html=1;entryX=1;entryY=0.5;entryDx=0;entryDy=0;" edge="1" parent="1" source="NtfHxoDCMZl6DEECY9gm-302" target="NtfHxoDCMZl6DEECY9gm-295">
          <mxGeometry relative="1" as="geometry">
            <mxPoint x="1030" y="2690" as="targetPoint" />
          </mxGeometry>
        </mxCell>
        <mxCell id="NtfHxoDCMZl6DEECY9gm-302" value="Armazena" style="shape=cylinder3;whiteSpace=wrap;html=1;boundedLbl=1;backgroundOutline=1;size=15;" vertex="1" parent="1">
          <mxGeometry x="1065" y="2680" width="55" height="60" as="geometry" />
        </mxCell>
        <mxCell id="NtfHxoDCMZl6DEECY9gm-303" style="edgeStyle=orthogonalEdgeStyle;rounded=0;orthogonalLoop=1;jettySize=auto;html=1;entryX=0;entryY=1;entryDx=0;entryDy=-15;entryPerimeter=0;" edge="1" parent="1" source="NtfHxoDCMZl6DEECY9gm-293" target="NtfHxoDCMZl6DEECY9gm-302">
          <mxGeometry relative="1" as="geometry" />
        </mxCell>
        <mxCell id="NtfHxoDCMZl6DEECY9gm-304" style="edgeStyle=orthogonalEdgeStyle;rounded=0;orthogonalLoop=1;jettySize=auto;html=1;" edge="1" parent="1" source="NtfHxoDCMZl6DEECY9gm-305">
          <mxGeometry relative="1" as="geometry">
            <mxPoint x="1050" y="2200" as="targetPoint" />
          </mxGeometry>
        </mxCell>
        <mxCell id="NtfHxoDCMZl6DEECY9gm-305" value="Valor da diária" style="ellipse;whiteSpace=wrap;html=1;fillColor=#fff2cc;strokeColor=#d6b656;" vertex="1" parent="1">
          <mxGeometry x="1070" y="2200" width="90" height="40" as="geometry" />
        </mxCell>
        <mxCell id="NtfHxoDCMZl6DEECY9gm-306" style="edgeStyle=orthogonalEdgeStyle;rounded=0;orthogonalLoop=1;jettySize=auto;html=1;entryX=0;entryY=1;entryDx=0;entryDy=-15;entryPerimeter=0;" edge="1" parent="1" source="NtfHxoDCMZl6DEECY9gm-275" target="NtfHxoDCMZl6DEECY9gm-279">
          <mxGeometry relative="1" as="geometry" />
        </mxCell>
        <mxCell id="NtfHxoDCMZl6DEECY9gm-307" style="edgeStyle=orthogonalEdgeStyle;rounded=0;orthogonalLoop=1;jettySize=auto;html=1;entryX=0;entryY=0;entryDx=0;entryDy=15;entryPerimeter=0;" edge="1" parent="1" source="NtfHxoDCMZl6DEECY9gm-276" target="NtfHxoDCMZl6DEECY9gm-279">
          <mxGeometry relative="1" as="geometry" />
        </mxCell>
        <mxCell id="NtfHxoDCMZl6DEECY9gm-308" style="edgeStyle=orthogonalEdgeStyle;rounded=0;orthogonalLoop=1;jettySize=auto;html=1;entryX=1;entryY=0;entryDx=0;entryDy=30;entryPerimeter=0;" edge="1" parent="1" source="NtfHxoDCMZl6DEECY9gm-254" target="NtfHxoDCMZl6DEECY9gm-279">
          <mxGeometry relative="1" as="geometry" />
        </mxCell>
        <mxCell id="NtfHxoDCMZl6DEECY9gm-309" style="edgeStyle=orthogonalEdgeStyle;rounded=0;orthogonalLoop=1;jettySize=auto;html=1;entryX=0.951;entryY=0.369;entryDx=0;entryDy=0;entryPerimeter=0;" edge="1" parent="1" source="NtfHxoDCMZl6DEECY9gm-261" target="NtfHxoDCMZl6DEECY9gm-264">
          <mxGeometry relative="1" as="geometry" />
        </mxCell>
        <mxCell id="NtfHxoDCMZl6DEECY9gm-310" style="edgeStyle=orthogonalEdgeStyle;rounded=0;orthogonalLoop=1;jettySize=auto;html=1;entryX=0.5;entryY=0;entryDx=0;entryDy=0;entryPerimeter=0;" edge="1" parent="1" source="NtfHxoDCMZl6DEECY9gm-264" target="NtfHxoDCMZl6DEECY9gm-285">
          <mxGeometry relative="1" as="geometry" />
        </mxCell>
        <mxCell id="NtfHxoDCMZl6DEECY9gm-311" style="edgeStyle=orthogonalEdgeStyle;rounded=0;orthogonalLoop=1;jettySize=auto;html=1;entryX=0.502;entryY=1.042;entryDx=0;entryDy=0;entryPerimeter=0;" edge="1" parent="1" source="NtfHxoDCMZl6DEECY9gm-260" target="NtfHxoDCMZl6DEECY9gm-285">
          <mxGeometry relative="1" as="geometry" />
        </mxCell>
        <mxCell id="NtfHxoDCMZl6DEECY9gm-312" value="1" style="text;html=1;align=center;verticalAlign=middle;whiteSpace=wrap;rounded=0;" vertex="1" parent="1">
          <mxGeometry x="760" y="2400" width="60" height="30" as="geometry" />
        </mxCell>
        <mxCell id="NtfHxoDCMZl6DEECY9gm-313" style="edgeStyle=orthogonalEdgeStyle;rounded=0;orthogonalLoop=1;jettySize=auto;html=1;exitX=0.25;exitY=1;exitDx=0;exitDy=0;entryX=0.5;entryY=1;entryDx=0;entryDy=0;" edge="1" parent="1" source="NtfHxoDCMZl6DEECY9gm-312" target="NtfHxoDCMZl6DEECY9gm-312">
          <mxGeometry relative="1" as="geometry" />
        </mxCell>
        <mxCell id="NtfHxoDCMZl6DEECY9gm-314" value="N" style="text;html=1;align=center;verticalAlign=middle;whiteSpace=wrap;rounded=0;" vertex="1" parent="1">
          <mxGeometry x="880" y="2210" width="60" height="30" as="geometry" />
        </mxCell>
        <mxCell id="NtfHxoDCMZl6DEECY9gm-315" value="1" style="text;html=1;align=center;verticalAlign=middle;whiteSpace=wrap;rounded=0;" vertex="1" parent="1">
          <mxGeometry x="940" y="2125" width="60" height="30" as="geometry" />
        </mxCell>
        <mxCell id="NtfHxoDCMZl6DEECY9gm-316" value="" style="edgeStyle=orthogonalEdgeStyle;rounded=0;orthogonalLoop=1;jettySize=auto;html=1;entryX=0.5;entryY=0;entryDx=0;entryDy=0;" edge="1" parent="1" source="NtfHxoDCMZl6DEECY9gm-268" target="NtfHxoDCMZl6DEECY9gm-317">
          <mxGeometry relative="1" as="geometry">
            <mxPoint x="950" y="2430" as="sourcePoint" />
            <mxPoint x="950" y="2465" as="targetPoint" />
          </mxGeometry>
        </mxCell>
        <mxCell id="NtfHxoDCMZl6DEECY9gm-317" value="N" style="text;html=1;align=center;verticalAlign=middle;whiteSpace=wrap;rounded=0;" vertex="1" parent="1">
          <mxGeometry x="905" y="2440" width="60" height="30" as="geometry" />
        </mxCell>
        <mxCell id="NtfHxoDCMZl6DEECY9gm-318" value="1" style="text;html=1;align=center;verticalAlign=middle;whiteSpace=wrap;rounded=0;" vertex="1" parent="1">
          <mxGeometry x="890" y="2660" width="60" height="30" as="geometry" />
        </mxCell>
        <mxCell id="NtfHxoDCMZl6DEECY9gm-319" value="Armazena" style="shape=cylinder3;whiteSpace=wrap;html=1;boundedLbl=1;backgroundOutline=1;size=15;" vertex="1" parent="1">
          <mxGeometry x="435" y="1690" width="60" height="80" as="geometry" />
        </mxCell>
        <mxCell id="NtfHxoDCMZl6DEECY9gm-320" style="edgeStyle=orthogonalEdgeStyle;rounded=0;orthogonalLoop=1;jettySize=auto;html=1;entryX=0.145;entryY=1;entryDx=0;entryDy=-4.35;entryPerimeter=0;" edge="1" parent="1" source="NtfHxoDCMZl6DEECY9gm-215" target="NtfHxoDCMZl6DEECY9gm-319">
          <mxGeometry relative="1" as="geometry" />
        </mxCell>
        <mxCell id="NtfHxoDCMZl6DEECY9gm-321" value="nome" style="ellipse;whiteSpace=wrap;html=1;fillColor=#ffe6cc;strokeColor=#d79b00;" vertex="1" parent="1">
          <mxGeometry x="365" y="1650" width="40" height="30" as="geometry" />
        </mxCell>
        <mxCell id="NtfHxoDCMZl6DEECY9gm-322" style="edgeStyle=orthogonalEdgeStyle;rounded=0;orthogonalLoop=1;jettySize=auto;html=1;entryX=0;entryY=1;entryDx=0;entryDy=-15;entryPerimeter=0;" edge="1" parent="1" source="NtfHxoDCMZl6DEECY9gm-321" target="NtfHxoDCMZl6DEECY9gm-319">
          <mxGeometry relative="1" as="geometry" />
        </mxCell>
        <mxCell id="NtfHxoDCMZl6DEECY9gm-323" value="endereço" style="ellipse;whiteSpace=wrap;html=1;fillColor=#ffe6cc;strokeColor=#d79b00;" vertex="1" parent="1">
          <mxGeometry x="435" y="1610" width="60" height="30" as="geometry" />
        </mxCell>
        <mxCell id="NtfHxoDCMZl6DEECY9gm-324" style="edgeStyle=orthogonalEdgeStyle;rounded=0;orthogonalLoop=1;jettySize=auto;html=1;entryX=0.5;entryY=0;entryDx=0;entryDy=0;entryPerimeter=0;" edge="1" parent="1" source="NtfHxoDCMZl6DEECY9gm-323" target="NtfHxoDCMZl6DEECY9gm-319">
          <mxGeometry relative="1" as="geometry" />
        </mxCell>
        <mxCell id="NtfHxoDCMZl6DEECY9gm-325" style="edgeStyle=orthogonalEdgeStyle;rounded=0;orthogonalLoop=1;jettySize=auto;html=1;entryX=1;entryY=1;entryDx=0;entryDy=-15;entryPerimeter=0;" edge="1" parent="1" source="NtfHxoDCMZl6DEECY9gm-214" target="NtfHxoDCMZl6DEECY9gm-319">
          <mxGeometry relative="1" as="geometry" />
        </mxCell>
        <mxCell id="NtfHxoDCMZl6DEECY9gm-326" style="edgeStyle=orthogonalEdgeStyle;rounded=0;orthogonalLoop=1;jettySize=auto;html=1;entryX=1;entryY=0;entryDx=0;entryDy=15;entryPerimeter=0;" edge="1" parent="1" source="NtfHxoDCMZl6DEECY9gm-216" target="NtfHxoDCMZl6DEECY9gm-319">
          <mxGeometry relative="1" as="geometry" />
        </mxCell>
        <mxCell id="NtfHxoDCMZl6DEECY9gm-327" value="Armazena" style="shape=cylinder3;whiteSpace=wrap;html=1;boundedLbl=1;backgroundOutline=1;size=15;" vertex="1" parent="1">
          <mxGeometry x="585" y="1440" width="60" height="80" as="geometry" />
        </mxCell>
        <mxCell id="NtfHxoDCMZl6DEECY9gm-328" style="edgeStyle=orthogonalEdgeStyle;rounded=0;orthogonalLoop=1;jettySize=auto;html=1;entryX=0;entryY=0;entryDx=0;entryDy=52.5;entryPerimeter=0;" edge="1" parent="1" source="NtfHxoDCMZl6DEECY9gm-192" target="NtfHxoDCMZl6DEECY9gm-327">
          <mxGeometry relative="1" as="geometry" />
        </mxCell>
        <mxCell id="NtfHxoDCMZl6DEECY9gm-329" style="edgeStyle=orthogonalEdgeStyle;rounded=0;orthogonalLoop=1;jettySize=auto;html=1;entryX=0;entryY=0;entryDx=0;entryDy=15;entryPerimeter=0;" edge="1" parent="1" source="NtfHxoDCMZl6DEECY9gm-189" target="NtfHxoDCMZl6DEECY9gm-327">
          <mxGeometry relative="1" as="geometry" />
        </mxCell>
        <mxCell id="NtfHxoDCMZl6DEECY9gm-330" style="edgeStyle=orthogonalEdgeStyle;rounded=0;orthogonalLoop=1;jettySize=auto;html=1;entryX=1;entryY=0;entryDx=0;entryDy=27.5;entryPerimeter=0;" edge="1" parent="1" source="NtfHxoDCMZl6DEECY9gm-190" target="NtfHxoDCMZl6DEECY9gm-327">
          <mxGeometry relative="1" as="geometry" />
        </mxCell>
        <mxCell id="NtfHxoDCMZl6DEECY9gm-331" style="edgeStyle=orthogonalEdgeStyle;rounded=0;orthogonalLoop=1;jettySize=auto;html=1;entryX=1;entryY=1;entryDx=0;entryDy=-15;entryPerimeter=0;" edge="1" parent="1" source="NtfHxoDCMZl6DEECY9gm-191" target="NtfHxoDCMZl6DEECY9gm-327">
          <mxGeometry relative="1" as="geometry" />
        </mxCell>
        <mxCell id="NtfHxoDCMZl6DEECY9gm-332" style="edgeStyle=orthogonalEdgeStyle;rounded=0;orthogonalLoop=1;jettySize=auto;html=1;entryX=0.5;entryY=1;entryDx=0;entryDy=0;entryPerimeter=0;" edge="1" parent="1" source="NtfHxoDCMZl6DEECY9gm-184" target="NtfHxoDCMZl6DEECY9gm-327">
          <mxGeometry relative="1" as="geometry" />
        </mxCell>
        <mxCell id="NtfHxoDCMZl6DEECY9gm-333" value="1NF" style="text;html=1;align=center;verticalAlign=middle;whiteSpace=wrap;rounded=0;" vertex="1" parent="1">
          <mxGeometry x="180" y="1535" width="60" height="30" as="geometry" />
        </mxCell>
        <mxCell id="NtfHxoDCMZl6DEECY9gm-334" value="2NF" style="text;html=1;align=center;verticalAlign=middle;whiteSpace=wrap;rounded=0;" vertex="1" parent="1">
          <mxGeometry x="180" y="1780" width="60" height="30" as="geometry" />
        </mxCell>
        <mxCell id="NtfHxoDCMZl6DEECY9gm-335" style="edgeStyle=orthogonalEdgeStyle;rounded=0;orthogonalLoop=1;jettySize=auto;html=1;entryX=0;entryY=0;entryDx=0;entryDy=37.5;entryPerimeter=0;" edge="1" parent="1" source="NtfHxoDCMZl6DEECY9gm-203" target="NtfHxoDCMZl6DEECY9gm-286">
          <mxGeometry relative="1" as="geometry" />
        </mxCell>
        <mxCell id="NtfHxoDCMZl6DEECY9gm-336" style="edgeStyle=orthogonalEdgeStyle;rounded=0;orthogonalLoop=1;jettySize=auto;html=1;entryX=0.167;entryY=1;entryDx=0;entryDy=0;entryPerimeter=0;" edge="1" parent="1" source="NtfHxoDCMZl6DEECY9gm-327" target="NtfHxoDCMZl6DEECY9gm-293">
          <mxGeometry relative="1" as="geometry" />
        </mxCell>
        <mxCell id="NtfHxoDCMZl6DEECY9gm-337" style="edgeStyle=orthogonalEdgeStyle;rounded=0;orthogonalLoop=1;jettySize=auto;html=1;" edge="1" parent="1" source="NtfHxoDCMZl6DEECY9gm-338" target="NtfHxoDCMZl6DEECY9gm-237">
          <mxGeometry relative="1" as="geometry" />
        </mxCell>
        <mxCell id="NtfHxoDCMZl6DEECY9gm-338" value="Realiza" style="rhombus;whiteSpace=wrap;html=1;" vertex="1" parent="1">
          <mxGeometry x="490" y="2575" width="80" height="80" as="geometry" />
        </mxCell>
      </root>
    </mxGraphModel>
  </diagram>
</mxfile>
